<svg xmlns="http://www.w3.org/2000/svg" width="607" height="186" viewBox="0 0 607 186">
  <g fill="none" fill-rule="evenodd" transform="translate(0 -40)">
    <polyline fill="#976447" points="186.154 223.981 54.553 224.96 54.553 138.913 186.154 138.913 186.154 223.981"/>
    <polyline fill="#976447" points="191.216 147.349 48.929 147.349 63.656 95.72 180.493 95.608 191.216 147.349"/>
    <polygon fill="#724C36" points="48.929 161.409 191.216 161.409 191.216 147.911 48.929 147.911"/>
    <polyline fill="#724C36" points="144.537 123.166 97.858 123.166 99.847 118.666 143.208 118.666 144.537 123.166"/>
    <g transform="translate(84.922 167.033)">
      <polygon fill="#FFF" points="0 47.62 71.961 47.62 71.961 .576 0 .576"/>
      <polygon fill="#EA0000" points="0 9.356 71.961 9.356 71.961 .141 0 .141"/>
      <polygon fill="#EA0000" points="0 28.315 71.961 28.315 71.961 19.1 0 19.1"/>
      <polygon fill="#EA0000" points="0 47.804 71.961 47.804 71.961 38.589 0 38.589"/>
      <polyline fill="#00B7D9" points="0 .576 0 47.62 32.238 23.581 0 .576"/>
      <polyline fill="#FFFFFE" points="19.763 20.771 14.384 20.771 12.634 15.574 10.855 20.771 5.424 20.771 9.715 24.097 7.869 29.487 12.42 26.599 17.316 29.487 15.463 23.978 19.763 20.771"/>
    </g>
    <path fill="#9B0000" d="M88.2968,214.8368 C94.1601546,213.050017 113.653317,207.945212 115.911544,205.738621 L157.472,205.593619 L157.472,214.8368 L88.2968,214.8368 Z M131.956557,195.43363 C135.164144,193.16414 139.229947,189.337404 141.564197,186.190448 L157.472,185.951859 L157.472,195.43363 L131.956557,195.43363 Z M148.898678,176.41694 C151.286761,173.567332 153.185339,170.22157 154.223643,167.0328 L157.472,167.0328 L157.472,176.41694 L148.898678,176.41694 Z"/>
    <path fill="#B9B9B9" d="M156.9096,195.362775 L156.9096,205.690997 L115.8544,205.8384 C118.952813,204.502402 121.877854,202.896735 124.629522,201.021399 C131.136625,196.586633 131.704352,195.362775 131.704352,195.362775 L156.9096,195.362775 L156.9096,195.362775 Z M156.9096,176.0312 L156.9096,185.966542 L141.19519,185.966542 L148.440505,176.0312 L156.9096,176.0312 Z"/>
    <polyline fill="#892725" points="163.096 95.335 163.096 95.335 180.53 95.319 163.096 95.335"/>
    <path fill="#64432F" d="M54.5528 214.905408C60.0470455 215.93193 65.6481064 216.463708 71.287396 216.463708 77.0301278 216.463708 82.7329443 215.916307 88.3250102 214.852751L156.785794 214.852751 156.785794 167.588763 153.190051 167.588763C154.313299 165.567545 155.36515 163.505243 156.344478 161.4088L186.1544 161.4088 186.1544 223.97977 54.5528 224.96 54.5528 214.905408zM191.216 147.3488L161.4088 147.3488C164.14919 138.269608 165.583235 128.77175 165.583235 119.163869 165.583235 111.183167 164.592691 103.276006 162.686958 95.624793L180.288956 95.608 191.216 147.3488"/>
    <path fill="#4F3425" d="M190.6536,161.4088 L155.7848,161.4088 C157.917718,157.052553 159.709484,152.538629 161.141301,147.9112 L190.6536,147.9112 L190.6536,161.4088"/>
    <polyline fill="#CBCCCB" points="154.66 100.227 105.004 120.354 82.11 60.619 131.766 40.493 154.66 100.227"/>
    <polyline fill="#8A8B8A" points="128.79 50.251 91.704 65.238 90.546 62.229 127.632 47.242 128.79 50.251"/>
    <polyline fill="#8A8B8A" points="130.477 53.413 92.662 68.613 92.234 67.503 130.049 52.303 130.477 53.413"/>
    <polyline fill="#8A8B8A" points="146.224 96.368 109.137 111.355 107.981 108.345 145.066 93.358 146.224 96.368"/>
    <polyline fill="#892725" points="130.477 40.448 130.477 40.448 131.602 39.976 130.477 40.448"/>
    <path fill="#868685" d="M104.872287,120.3536 L104.872287,120.3536 L102.9192,115.324668 C105.091639,114.231397 107.17178,113.006379 109.152785,111.664059 L109.155064,111.66926 C108.883865,111.85359 108.610387,112.035032 108.3352,112.214739 L108.434336,112.468411 L146.196493,97.3735257 L146.196493,97.3729478 L147.089284,97.0164213 L145.910481,93.9856563 L116.487118,105.747567 C119.719853,102.665952 122.575987,99.2254993 125.015637,95.5175072 C124.792866,95.8572765 124.566108,96.1947344 124.335931,96.5293031 L129.579298,94.4334815 L129.013541,92.9773275 L141.085876,88.1512172 L134.350346,70.8183622 C135.718305,61.1701864 134.742331,51.0944099 131.022463,41.5225089 C130.952384,41.3381783 130.868062,41.1602039 130.794565,40.9776068 L132.008692,40.4928 L155.2224,100.227472 L104.872287,120.3536"/>
    <path fill="#626362" d="M108.545464,110.7928 L108.5432,110.787673 C110.383524,109.549724 112.140094,108.20923 113.804987,106.778724 C112.140094,108.211508 110.386353,109.553142 108.545464,110.7928 M115.828098,104.954558 L115.828098,104.954558 L145.053142,93.3584 L146.224,96.3464544 L145.337227,96.6979567 L144.168066,93.710472 L115.828098,104.954558"/>
    <path fill="#868685" d="M128.2272 89.702668C131.39543 83.6690406 133.531461 77.0920492 134.494283 70.3L141.085876 88.1512172 129.0708 93.3584 128.2272 89.702668zM108.641863 111.3552L108.5432 111.109478C108.817075 110.935402 109.089249 110.759647 109.359155 110.581093L109.529831 111.009287 146.224 96.7328 146.224 96.7333598 108.641863 111.3552"/>
    <path fill="#626362" d="M109.834642,111.3552 L109.668,110.907475 C111.468953,109.633945 113.184648,108.255654 114.813423,106.78372 C115.486635,106.175048 116.145453,105.550574 116.788769,104.911468 L116.792645,104.909712 L144.517804,93.3584 L145.6616,96.4275129 L109.834642,111.3552"/>
    <path fill="#868685" d="M124.335931,96.5293031 L125.604796,94.8765107 C126.370025,93.7317051 126.4152,93.7966264 127.1024,92.6116301 L128.2272,89.702668 L129.579298,94.4334815 L125.604796,96.1704"/>
    <path fill="#3A3630" fill-rule="nonzero" d="M226.717906 211.371564L226.717906 198.063507 234.489816 198.063507C243.279477 198.063507 247.628046 192.758768 247.628046 185.772038 247.628046 178.803791 243.316486 173.517536 234.508321 173.517536L221 173.517536 221 211.371564 226.717906 211.371564zM233.971689 193.220853L226.717906 193.220853 226.717906 178.41564 233.897671 178.41564C239.560063 178.41564 241.873132 181.483886 241.873132 185.772038 241.873132 190.06019 239.560063 193.220853 233.971689 193.220853zM268.570786 212C276.953347 212 283.633489 207.101896 283.633489 198.562559L283.633489 173.517536 277.915584 173.517536 277.915584 198.470142C277.915584 203.774882 273.678042 206.750711 268.570786 206.750711 263.50054 206.750711 259.244493 203.774882 259.244493 198.470142L259.244493 173.517536 253.526588 173.517536 253.526588 198.562559C253.526588 207.101896 260.188225 212 268.570786 212zM315.160836 211.371564L315.160836 206.454976 296.896846 206.454976 296.896846 194.865877 313.698977 194.865877 313.698977 189.967773 296.896846 189.967773 296.896846 178.434123 314.938781 178.434123 314.938781 173.517536 291.17894 173.517536 291.17894 211.371564 315.160836 211.371564zM327.535968 211.371564L327.535968 197.046919 335.677969 197.046919 335.677969 197.046919 343.375862 211.371564 349.889463 211.371564 341.488398 196.048815C346.13304 194.329858 348.446108 190.466825 348.446108 185.383886 348.446108 178.41564 344.116044 173.517536 335.326383 173.517536L321.818062 173.517536 321.818062 211.371564 327.535968 211.371564zM334.789751 192.130332L327.535968 192.130332 327.535968 178.41564 334.715733 178.41564C340.35962 178.41564 342.691194 181.095735 342.691194 185.383886 342.691194 189.653555 340.35962 192.130332 334.789751 192.130332zM370.277067 211.371564L370.277067 178.434123 382.101474 178.434123 382.101474 173.517536 352.771763 173.517536 352.771763 178.434123 364.577666 178.434123 364.577666 211.371564 370.277067 211.371564zM402.044967 211.8891C411.852378 211.8891 419.106161 204.551185 419.106161 192.44455 419.106161 180.337915 411.852378 173 402.044967 173 392.200547 173 384.965268 180.337915 384.965268 192.44455 384.965268 204.532701 392.200547 211.8891 402.044967 211.8891zM402.044967 206.676777C395.512861 206.676777 390.646165 201.667773 390.646165 192.44455 390.646165 183.221327 395.512861 178.212322 402.044967 178.212322 408.558568 178.212322 413.443769 183.221327 413.443769 192.44455 413.443769 201.667773 408.558568 206.676777 402.044967 206.676777zM444.170993 211.371564L444.170993 197.046919 452.312995 197.046919 452.312995 197.046919 460.010887 211.371564 466.524489 211.371564 458.123423 196.048815C462.768065 194.329858 465.081134 190.466825 465.081134 185.383886 465.081134 178.41564 460.751069 173.517536 451.961409 173.517536L438.453088 173.517536 438.453088 211.371564 444.170993 211.371564zM451.424777 192.130332L444.170993 192.130332 444.170993 178.41564 451.350758 178.41564C456.994646 178.41564 459.326219 181.095735 459.326219 185.383886 459.326219 189.653555 456.994646 192.130332 451.424777 192.130332zM476.993654 211.371564L476.993654 173.517536 471.275748 173.517536 471.275748 211.371564 476.993654 211.371564zM500.360471 211.8891C508.687518 211.8891 514.775515 206.676777 516.01532 199.190995L510.241901 199.172512C509.261159 204.015166 505.190159 206.676777 500.39748 206.676777 493.902384 206.676777 488.998678 201.704739 488.998678 192.44455 488.998678 183.258294 493.883879 178.212322 500.415985 178.212322 505.245672 178.212322 509.298169 180.929384 510.241901 185.827488L516.01532 185.827488C514.720001 177.731754 508.372941 173 500.360471 173 490.55306 173 483.317781 180.337915 483.317781 192.44455 483.317781 204.551185 490.516051 211.8891 500.360471 211.8891zM537.938806 211.8891C547.746217 211.8891 555 204.551185 555 192.44455 555 180.337915 547.746217 173 537.938806 173 528.094385 173 520.859107 180.337915 520.859107 192.44455 520.859107 204.532701 528.094385 211.8891 537.938806 211.8891zM537.938806 206.676777C531.4067 206.676777 526.540003 201.667773 526.540003 192.44455 526.540003 183.221327 531.4067 178.212322 537.938806 178.212322 544.452407 178.212322 549.337608 183.221327 549.337608 192.44455 549.337608 201.667773 544.452407 206.676777 537.938806 206.676777zM230.600746 156.374525L230.600746 141.541825 238.671581 141.541825C249.114887 141.541825 255.190186 135.264734 255.190186 126.128327 255.190186 117.036597 249.225751 110.625475 238.91548 110.625475L221 110.625475 221 156.374525 230.600746 156.374525zM237.119498 133.790399L230.600746 133.790399 230.600746 118.53327 237.075153 118.53327C242.618309 118.53327 245.301196 121.571293 245.301196 126.128327 245.301196 130.663023 242.618309 133.790399 237.119498 133.790399zM263.078352 156.374525L266.448591 145.94249 282.83416 145.94249 286.204399 156.374525 296.492496 156.374525 280.838624 110.625475 268.4663 110.625475 252.790254 156.374525 263.078352 156.374525zM280.417344 138.39211L268.887579 138.39211 274.475081 121.079848 274.829843 121.079848 280.417344 138.39211zM310.61118 156.374525L310.61118 140.156844 317.617729 140.156844 326.220708 156.374525 336.819222 156.374525 327.17413 138.593156C332.340352 136.359316 335.20062 131.82462 335.20062 125.569867 335.20062 116.478137 329.236184 110.625475 318.925914 110.625475L301.010434 110.625475 301.010434 156.374525 310.61118 156.374525zM317.129932 132.38308L310.61118 132.38308 310.61118 118.53327 317.085586 118.53327C322.628743 118.53327 325.31163 121.012833 325.31163 125.569867 325.31163 130.104563 322.628743 132.38308 317.129932 132.38308zM348.875846 156.374525L352.246085 145.94249 368.631654 145.94249 372.001893 156.374525 382.289991 156.374525 366.636118 110.625475 354.263794 110.625475 338.587749 156.374525 348.875846 156.374525zM366.214838 138.39211L354.685074 138.39211 360.272575 121.079848 360.627337 121.079848 366.214838 138.39211zM425.937301 156.374525L441.591174 110.625475 430.948314 110.625475 419.950693 145.38403 419.529413 145.38403 408.553964 110.625475 397.888932 110.625475 413.564977 156.374525 425.937301 156.374525zM464.822805 157C476.86254 157 486.086351 148.46673 486.086351 133.5 486.086351 118.53327 476.86254 110 464.822805 110 452.716552 110 443.559258 118.53327 443.559258 133.5 443.559258 148.399715 452.716552 157 464.822805 157zM464.822805 148.444392C457.838428 148.444392 453.29304 143.194867 453.29304 133.5 453.29304 123.805133 457.838428 118.555608 464.822805 118.555608 471.785009 118.555608 476.352569 123.805133 476.352569 133.5 476.352569 143.194867 471.785009 148.444392 464.822805 148.444392zM511.890008 156.374525L511.890008 118.600285 525.792243 118.600285 525.792243 110.625475 488.49789 110.625475 488.49789 118.600285 502.400125 118.600285 502.400125 156.374525 511.890008 156.374525zM533.25913 156.374525L536.629369 145.94249 553.014938 145.94249 556.385177 156.374525 566.673274 156.374525 551.019402 110.625475 538.647078 110.625475 522.971032 156.374525 533.25913 156.374525zM550.598122 138.39211L539.068357 138.39211 544.655859 121.079848 545.010621 121.079848 550.598122 138.39211zM580.791958 156.374525L580.791958 140.156844 587.798507 140.156844 596.401486 156.374525 607 156.374525 597.354908 138.593156C602.52113 136.359316 605.381398 131.82462 605.381398 125.569867 605.381398 116.478137 599.416963 110.625475 589.106692 110.625475L571.191212 110.625475 571.191212 156.374525 580.791958 156.374525zM587.31071 132.38308L580.791958 132.38308 580.791958 118.53327 587.266365 118.53327C592.809521 118.53327 595.492408 121.012833 595.492408 125.569867 595.492408 130.104563 592.809521 132.38308 587.31071 132.38308z"/>
  </g>
</svg>
