<?xml version="1.0" encoding="utf-8"?>
<!-- Generator: Adobe Illustrator 24.0.1, SVG Export Plug-In . SVG Version: 6.00 Build 0)  -->
<svg version="1.1" id="Layer_1" xmlns="http://www.w3.org/2000/svg" xmlns:xlink="http://www.w3.org/1999/xlink" x="0px" y="0px"
	 viewBox="0 0 600 600" style="enable-background:new 0 0 600 600;" xml:space="preserve">
<style type="text/css">
	.st0{fill:#A4A3A3;}
	.st1{fill:#EFF6F6;}
</style>
<circle class="st0" cx="300" cy="300" r="300"/>
<g>
	<path class="st1" d="M287.72,438.86h-3.58c-11.11,0-20.11-9-20.11-20.11v-3.58c0-11.11,9-20.11,20.11-20.11h3.58
		c11.11,0,20.11,9,20.11,20.11v3.58C307.83,429.86,298.83,438.86,287.72,438.86z"/>
	<path class="st1" d="M300.25,380.08c0,1.91-1.55,3.45-3.45,3.45h-11.8h-12.41c-1.91,0-3.45-1.55-3.45-3.45v-6.79
		c0-38.49,46.26-81.01,55.13-90.51c4.12-4.41,22.86-24.71,22.86-58s-19.5-43.83-47.96-43.83c-28.47,0-48.55,16.78-48.55,44.42
		c0,21.9,16.13,38.69,22.99,47.53c1.11,1.43,0.53,3.54-0.93,4.59l-18.82,15.85c-1.61,1.15-3.42,0.36-4.92-0.93
		c-7.94-6.87-29.57-30.18-29.57-67.05c0-75.67,79.8-75.67,79.8-75.67c44.95,0,79.22,16.65,79.22,75.08
		c0,36.97-13.27,57.51-30.67,78.62c-8.39,10.18-47.46,47.78-47.46,69.89V380.08z"/>
	<path class="st1" d="M237.23,312.22c0,0-47.4,23.65-47.4,104.75v12.1c0,1.91,1.55,3.45,3.45,3.45h24.35c1.91,0,3.45-1.55,3.45-3.45
		v-12.1c0,0-0.81-54.54,30.7-77.22l5.04-4.11c1.5-1.22,1.7-3.44,0.45-4.91l-15.27-17.96c-1.03-1.22-2.77-1.56-4.19-0.84
		L237.23,312.22z"/>
	<path class="st1" d="M378.38,312.22l-0.57-0.29c-1.42-0.72-3.16-0.38-4.19,0.84l-15.27,17.96c-1.25,1.47-1.05,3.69,0.45,4.91
		l5.04,4.11c19.29,13.89,26.47,39.72,29.13,57.66c0.31,2.08-1.32,3.94-3.42,3.94h-46.23c-1.91,0-3.45,1.55-3.45,3.45l0.11,24.25
		c0,1.91,1.55,3.45,3.45,3.45h75.14l0,0h3.88c1.91,0,3.45-1.62,3.45-3.53v-11.99C425.88,335.86,378.38,312.22,378.38,312.22z"/>
</g>
</svg>
