<svg xmlns="http://www.w3.org/2000/svg" width="54" height="65"><g fill="none"><path fill="#6FE3FF" d="M41.31 40.625c5.424 0 10.131 3.759 11.353 9.065 1.22 5.306-1.367 10.757-6.241 13.146a11.624 11.624 0 01-14.165-3.143 11.734 11.734 0 01-.14-14.562 11.638 11.638 0 019.192-4.506z"/><path fill="#F7CAA5" d="M27.37 38.2a12.36 12.36 0 01-11.242.304 12.443 12.443 0 01-6.864-8.943l-.689-2.38v-.02a3.347 3.347 0 01-2.22-1.474 3.372 3.372 0 01-.449-2.634 2.519 2.519 0 012.242-1.924v.078c.273.164.585.25.904.25.954.002 1.74-.753 1.783-1.71l.22-4.852c1.57.053 3.143.013 4.709-.12 7.627 6.823 18.998 6.384 18.998 6.384v-.029c1.08.09 1.981.865 2.235 1.923a3.37 3.37 0 01-.698 2.97 3.338 3.338 0 01-1.97 1.138v.02l-.69 2.38a12.439 12.439 0 01-6.269 8.64z"/><path fill="#3B484C" d="M34.762 21.13v.029s-11.371.44-18.998-6.383v-.002a39.24 39.24 0 007.148-1.2s3.751 4.846 11.85 5.37v2.186z"/><path fill="#6D7375" d="M22.912 13.573a39.24 39.24 0 01-7.148 1.201 39.763 39.763 0 01-4.709.121l-.22 4.852a1.787 1.787 0 01-1.783 1.71c-.319 0-.63-.086-.904-.25v-6.873C8.148 6.956 14.106.975 21.455.975c7.35 0 13.307 5.98 13.307 13.359v4.61c-8.099-.524-11.85-5.37-11.85-5.37z"/><path fill="#E48E66" d="M32.506 59.992H.906v-6.708a6.645 6.645 0 01.226-1.762c.619-2.26 2.381-4.024 4.602-4.747l9.785-3.185a12.432 12.432 0 0011.867 0l4.732 1.54a11.736 11.736 0 00.388 14.862z"/><path fill="#EDB288" d="M27.37 43.585l.016.005a12.432 12.432 0 01-11.867 0l.014-.005V38.2a12.364 12.364 0 0011.837.002v5.384z"/><path fill="#63316D" d="M.906 60.902h31.197a12.527 12.527 0 0013.899 3.12c4.829-1.952 7.958-6.692 7.867-11.918-.09-5.225-3.383-9.853-8.277-11.634a12.53 12.53 0 00-13.781 3.604l-3.534-1.15v-4.197a13.305 13.305 0 006.245-8.955l.538-1.86a4.272 4.272 0 002.818-5.076 3.398 3.398 0 00-2.21-2.435v-6.067c0-7.88-6.363-14.269-14.213-14.269-7.85 0-14.213 6.388-14.213 14.269V20.4a3.401 3.401 0 00-2.216 2.437 4.275 4.275 0 002.818 5.077l.538 1.86a13.327 13.327 0 006.245 8.952v4.199L5.455 45.91C2.893 46.743.95 48.75.256 51.286A7.487 7.487 0 000 53.285v6.707c0 .503.407.91.907.91zm31.926-15.211a10.722 10.722 0 0113.6-2.854c4.618 2.512 6.751 8.007 5.044 12.995-1.707 4.987-6.755 8.005-11.936 7.136-5.182-.869-8.979-5.37-8.979-10.643a10.757 10.757 0 012.271-6.634zM16.44 39.633a13.242 13.242 0 0010.024 0v3.406a11.482 11.482 0 01-10.024 0v-3.406zm6.16-25.037c1.154 1.233 4.786 4.515 11.256 5.183v.467c-2.505-.062-9.91-.613-15.791-4.795a38.185 38.185 0 004.536-.855zm-13.546-.262c0-4.448 2.364-8.557 6.2-10.781a12.359 12.359 0 0112.401 0 12.458 12.458 0 016.2 10.78v3.614c-4.754-.542-7.797-2.658-9.24-3.937 2.434-.802 4.509-1.855 6.178-3.14a.912.912 0 00.164-1.273.904.904 0 00-1.267-.171c-1.806 1.39-4.164 2.49-7.01 3.267l-.007.002c-2.286.608-4.623 1-6.981 1.172-1.527.13-3.06.17-4.59.12a.904.904 0 00-.952.867l-.22 4.852a.88.88 0 01-.876.842v-6.214zm1.101 15.058a.932.932 0 00-.02-.085l-.666-2.302a.908.908 0 00-.737-.74 2.441 2.441 0 01-2.015-2.411c0-.197.023-.394.07-.585a1.576 1.576 0 011.11-1.168 2.674 2.674 0 002.542-.117 2.695 2.695 0 001.302-2.196l.18-3.962a44.46 44.46 0 003.53-.116c4.044 3.481 9.008 5.025 12.499 5.708 3.855.754 6.727.654 6.847.65.018 0 .036-.004.054-.005a1.588 1.588 0 011.266 1.209 2.45 2.45 0 01-1.947 2.992.908.908 0 00-.735.74l-.666 2.302a.978.978 0 00-.02.086c-1.023 5.455-5.768 9.406-11.297 9.406-5.53 0-10.275-3.951-11.297-9.406zM1.813 53.284a5.675 5.675 0 01.193-1.521c.53-1.937 2.029-3.478 4.008-4.122l9.423-3.068a13.282 13.282 0 0012.03 0l3.205 1.043a12.507 12.507 0 00-1.924 6.709c0 2.393.68 4.737 1.958 6.757H1.813v-5.798z"/><path fill="#63316D" d="M36.899 53.267h3.504v3.518c0 .503.406.91.906.91.501 0 .907-.407.907-.91v-3.517h3.504c.5 0 .906-.408.906-.91a.908.908 0 00-.906-.91h-3.504V47.93a.908.908 0 00-.907-.91c-.5 0-.906.407-.906.91v3.517h-3.504c-.5 0-.907.408-.907.91 0 .503.406.91.907.91z"/></g></svg>