<svg xmlns="http://www.w3.org/2000/svg" width="36" height="38" viewBox="0 0 36 38">
  <g fill="none">
    <path fill="#F9F5F2" d="M15.399981,32.4583333 L20.600019,32.4583333 C22.0339581,32.4540039 23.1955058,31.35368 23.2,29.9953944 L23.2,26.9166667 L12.8,26.9166667 L12.8,29.9953944 C12.8045703,31.35368 13.9661181,32.4540039 15.399981,32.4583333 Z"/>
    <path fill="#FDCA6E" d="M34.155309,32.4312038 C33.6450573,30.1390768 31.5695608,28.5031344 29.167309,28.5 L23.0963212,28.5 L23.0963212,29.7440684 C23.091842,31.1162832 21.9534618,32.2278317 20.5481979,32.2321324 L15.4518767,32.2321324 C14.0465382,32.2277589 12.908158,31.1162103 12.9037535,29.7440684 L12.9037535,28.5 L6.83276563,28.5 C4.43051389,28.5031344 2.35501736,30.1390039 1.84476563,32.4312038 L0.8,37.2083333 L35.2,37.2083333 L34.155309,32.4312038 Z"/>
    <path fill="#A05D35" d="M10.6000476,15.7201964 L10.6000476,11.3660662 L26.2000286,11.3660662 L26.2000286,15.7201964 C27.6358667,15.7201964 28.8,16.8342234 28.8,18.2083333 L28.8,10.7439956 C28.8,5.24719134 24.144076,0.791666667 18.4000381,0.791666667 C12.6560002,0.791666667 8,5.24726424 8,10.7440684 L8,18.2083333 C8,16.8342963 9.16420952,15.7201964 10.6000476,15.7201964 Z"/>
    <path fill="#F9F5F2" d="M.0354510949 6.89777245C.0354510949 8.27415797 1.19562044 9.390089 2.62656934 9.390089L2.62656934 4.40538289C1.19569635 4.40538289.0354510949 5.52138693.0354510949 6.89777245zM18.1735066 4.40538289L18.1735066 9.390089C19.6044555 9.390089 20.7646248 8.27415797 20.7646248 6.89777245 20.7646248 5.52138693 19.6044555 4.40538289 18.1735066 4.40538289zM2.62664526.0438106796L2.62664526 12.5055394C2.62664526 13.881925 3.7868146 14.997856 5.2177635 14.997856L15.5823124 14.997856C17.0132613 14.997856 18.1734307 13.881925 18.1734307 12.5055394L18.1734307.0438106796 2.62664526.0438106796z" transform="translate(8 11.875)"/>
    <g fill="#231F20">
      <path d="M34.926251,32.3677617 C34.337523,29.7489531 31.9879582,27.8805703 29.2661925,27.8666914 L23.7841757,27.8666914 L23.7841757,27.17 C25.2790795,26.8672617 26.3529791,25.5708086 26.3548619,24.0666914 L26.3548619,21.47 C27.8497657,21.1672617 28.9236653,19.8708086 28.9255481,18.3666914 L28.9255481,10.7666914 C28.9255481,4.82028516 24.0341423,0 18.0000753,0 C11.9660084,0 7.0745272,4.82028516 7.0745272,10.7666914 L7.0745272,18.3666914 C7.07648536,19.8708828 8.15038494,21.1672617 9.64521339,21.47 L9.64521339,24.0666914 C9.64717155,25.5708828 10.7210711,26.8672617 12.2158996,27.17 L12.2158996,27.8666914 L6.73388285,27.8666914 C4.01151464,27.8806445 1.66119665,29.7508828 1.07314644,32.3703594 L0.0191297071,37.2343594 C-0.0547531381,37.5763594 0.166292887,37.9126445 0.513338912,37.9861211 C0.557698745,37.9956211 0.602661088,38.0000742 0.647623431,38.0000742 L35.3522259,38.0000742 C35.706954,38.0000742 35.9948787,37.7163359 35.9948787,37.3667656 C35.9948787,37.322457 35.9903598,37.2780742 35.9807197,37.2344336 L34.926251,32.3677617 Z M13.5012803,27.2333086 L22.498795,27.2333086 L22.498795,29.7666172 C22.498795,30.8160703 21.6356987,31.6666172 20.5707615,31.6666172 L15.4293138,31.6666172 C14.3643766,31.6666172 13.5012803,30.8160703 13.5012803,29.7666172 L13.5012803,27.2333086 L13.5012803,27.2333086 Z M19.2853808,13.9333086 C18.9306527,13.9333086 18.642728,14.2170469 18.642728,14.5666172 L18.642728,15.8333086 L17.3573473,15.8333086 L17.3573473,14.5666172 C17.3573473,14.2170469 17.0694226,13.9333086 16.7146946,13.9333086 L11.5732469,13.9333086 C11.2185188,13.9333086 10.9305941,14.2170469 10.9305941,14.5666172 L10.9305941,12.0333086 L25.0694812,12.0333086 L25.0694812,14.5666172 C25.0694812,14.2170469 24.7815565,13.9333086 24.4268285,13.9333086 L19.2853808,13.9333086 Z M23.7841757,15.2 L23.7841757,19 L19.9281088,19 L19.9281088,15.2 L23.7841757,15.2 Z M16.0720418,15.2 L16.0720418,19 L12.2159749,19 L12.2159749,15.2 L16.0720418,15.2 Z M26.3548619,20.158332 L26.3548619,16.5831406 C26.3754226,16.5907109 26.3966611,16.5945703 26.4191046,16.6021406 C26.4544268,16.6160937 26.4891464,16.6325703 26.5238661,16.6483789 C26.5951883,16.681332 26.6639498,16.7180703 26.7308285,16.7591875 C26.7623096,16.7781875 26.7950711,16.7971875 26.8239916,16.8181172 C26.8998326,16.871332 26.9718326,16.9295937 27.0393138,16.9929023 C27.0534728,17.0061875 27.0695146,17.0176172 27.0829958,17.0309023 C27.1613975,17.1094258 27.2333975,17.1936641 27.2970377,17.2842109 C27.3143598,17.3095195 27.3291967,17.3374258 27.3459163,17.3634023 C27.3895983,17.4324258 27.4294393,17.5039727 27.464159,17.5774492 C27.4802008,17.6122578 27.4950377,17.6477344 27.5085188,17.6838789 C27.5381172,17.7579492 27.561841,17.8346172 27.5805188,17.9118789 C27.5894812,17.9466875 27.5997992,17.9803086 27.6062008,18.0157109 C27.6287197,18.1316406 27.6402427,18.2487578 27.6402427,18.366543 C27.6395649,19.171668 27.124795,19.8892148 26.3548619,20.158332 Z M8.35990795,10.7666914 C8.35990795,5.52016797 12.6761423,1.26669141 18.0000753,1.26669141 C23.3240084,1.26669141 27.6402427,5.52016797 27.6402427,10.7666914 L27.6402427,15.8333828 C27.609364,15.8111914 27.576,15.7921914 27.5445188,15.7700742 C27.5130377,15.7478828 27.4899163,15.7333359 27.4622762,15.7155977 C27.311272,15.6180742 27.1518326,15.533168 26.9860669,15.4622891 C26.9622678,15.4521211 26.9371883,15.443957 26.9127866,15.434457 C26.7360251,15.3622422 26.5528619,15.3059102 26.3658577,15.2666484 L26.3549372,15.263457 L26.3549372,15.263457 L26.3549372,11.4 C26.3549372,11.0504297 26.0670126,10.7666914 25.7122845,10.7666914 L10.2880167,10.7666914 C9.9332887,10.7666914 9.64536402,11.0504297 9.64536402,11.4 L9.64536402,15.2633086 L9.64536402,15.2633086 L9.63640167,15.2633086 C9.44939749,15.3025703 9.26623431,15.3589766 9.0894728,15.4311172 C9.06507113,15.4406172 9.03999163,15.4488555 9.01619247,15.4589492 C8.85035146,15.5299023 8.69098745,15.6147344 8.53998326,15.7122578 C8.5123431,15.7299961 8.48470293,15.7477344 8.45774059,15.7667344 C8.43077824,15.7857344 8.39349791,15.8072578 8.36201674,15.830043 L8.35990795,10.7666914 Z M8.35990795,18.3666914 C8.36058577,18.2495 8.37278661,18.1323828 8.39590795,18.0177148 C8.40230962,17.9822383 8.41262762,17.9486914 8.42158996,17.9138828 C8.44087029,17.8359531 8.46466946,17.7599531 8.49358996,17.6852148 C8.50774895,17.6497383 8.52183264,17.6142617 8.53794979,17.5800469 C8.57266946,17.5059766 8.61183264,17.4343555 8.65619247,17.365332 C8.67291213,17.3393555 8.68767364,17.3115234 8.70507113,17.2861406 C8.7687113,17.1955938 8.8407113,17.1113555 8.91911297,17.032832 C8.93259414,17.0195469 8.9487113,17.0081172 8.96279498,16.994832 C9.03027615,16.9315234 9.10227615,16.8732617 9.17811715,16.8200469 C9.20831799,16.7991172 9.24235983,16.7801172 9.27128033,16.7611172 C9.33808368,16.7199258 9.4069205,16.6831875 9.47824268,16.6503086 C9.51296234,16.6345 9.54768201,16.6180234 9.58300418,16.6040703 C9.60296234,16.5965 9.62480335,16.5926406 9.64724686,16.5850703 L9.64724686,20.1602617 C8.87595816,19.8910703 8.36051046,19.1729297 8.35990795,18.3666914 Z M10.9305941,24.0666914 L10.9305941,19.6333828 C10.9305941,19.9829531 11.2185188,20.2666914 11.5732469,20.2666914 L16.7146946,20.2666914 C17.0694226,20.2666914 17.3573473,19.9829531 17.3573473,19.6333828 L17.3573473,17.1 L18.642728,17.1 L18.642728,19.6333086 C18.642728,19.9828789 18.9306527,20.2666172 19.2853808,20.2666172 L24.4268285,20.2666172 C24.7815565,20.2666172 25.0694812,19.9828789 25.0694812,19.6333086 L25.0694812,24.0666172 C25.0694812,25.1160703 24.2063849,25.9666172 23.1414477,25.9666172 L12.8586276,25.9666172 C11.7936904,25.9666172 10.9305941,25.1160703 10.9305941,24.0666914 Z M29.4699163,36.7333086 L28.9165858,33.4621172 L27.649205,33.6711172 L28.1672134,36.7333086 L7.83286192,36.7333086 L8.35087029,33.6711172 L7.08348954,33.4621172 L6.530159,36.7333086 L1.44210879,36.7333086 L2.32968201,32.6368789 C2.78789121,30.598832 4.61568201,29.1446641 6.73395816,29.1333086 L12.2159749,29.1333086 L12.2159749,29.7666172 C12.2179331,31.5146172 13.6555983,32.9313789 15.4293891,32.9333086 L20.5708368,32.9333086 C22.3446276,32.9313789 23.7822929,31.5146172 23.784251,29.7666172 L23.784251,29.1333086 L29.2662678,29.1333086 C31.3838661,29.1447383 33.2116569,30.5975703 33.6698661,32.6350234 L34.5580418,36.7333086 L29.4699163,36.7333086 L29.4699163,36.7333086 Z"/>
      <ellipse cx="21.856" cy="16.467" rx="1.285" ry="1.267"/>
      <ellipse cx="14.144" cy="16.467" rx="1.285" ry="1.267"/>
    </g>
  </g>
</svg>
