<svg xmlns="http://www.w3.org/2000/svg" viewBox="0 0 255 255"><path fill="#FFF" d="M127.1.8c68.9.1 125 56.8 124.9 126.3-.1 69.5-56.3 126.2-125.1 126.1C58 253.1 1.9 196.4 2 126.9 2.1 57.4 58.2.7 127.1.8"/><path fill-rule="evenodd" clip-rule="evenodd" fill="#EE254E" d="M152.4 148.3l19.3-19.4 52.4 52.5-19.4 19.3z"/><g fill-rule="evenodd" clip-rule="evenodd"><path fill="#EE254E" d="M150 211.9c-18.9-20.4-39-40.3-58.4-60.5 27.9-27.1 55.9-54.3 83.9-81.4 19.6 20.1 39.1 40.3 58.7 60.4-28.1 27.1-56.4 54.8-84.2 81.5zm20.2-96.1c-.3 3.2-.8 7.8-1.2 11.2-.2 1.3-.5 3-.2 3.7.7 1.6 2.6 2.6 3.9 4 9.3 9.6 18.4 18.9 27.5 28.3 5.6-5.5 11.3-10.9 16.9-16.4-15.1-15.3-30-31.4-45.3-46.3-.3 4.7-1 9.8-1.6 15.5zm-40.6 13.6c3.2-.6 6.5-1.3 9.7-1.8-.9 3.2-1.4 6.4-2.1 9.5 2.9-3.6 5.4-7.2 8.2-10.8 3.3-.7 6.5-1.1 9.9-1.9-1.6-1.6-3.2-3.3-4.7-4.9 2.5-3.5 5.5-7.2 7.9-10.7-3.6 2.5-7.4 5.3-10.9 7.6-1.6-1.4-3-3.6-4.8-4.6-.9 3.3-1.1 6.3-2.3 9.7-3.7 2.9-7.8 5.3-10.9 7.9zm22.4 17.4c-4.9.4-10.2.8-15.4 1.2-4.4.4-8.7.4-13 .8-.5.1-1.6.1-1.6.5 14.9 15.4 29.9 30.8 44.8 46.2 5.6-5.4 11.1-10.8 16.7-16.2-10.5-10.8-21-21.7-31.5-32.5z"/><path fill="#FFF" d="M91.6 151.4c19.4 20.2 39.5 40.2 58.4 60.5-19.4-20.2-39.5-40.2-58.4-60.5zM140.3 121.6c1.2-3.4 1.5-6.4 2.3-9.7 1.8 1 3.2 3.2 4.8 4.6 3.5-2.3 7.3-5.1 10.9-7.6-2.4 3.5-5.4 7.2-7.9 10.7 1.6 1.6 3.1 3.2 4.7 4.9-3.4.8-6.6 1.3-9.9 1.9-2.8 3.6-5.3 7.1-8.2 10.8.7-3.2 1.3-6.3 2.1-9.5-3.2.4-6.4 1.1-9.7 1.8 3.3-2.7 7.4-5.1 10.9-7.9z"/></g><path fill="#FFF" d="M134.3 161.7l15.5-15.5 52.4 52.5-15.5 15.5zM167.8 124.8l13.9-13.9 52.4 52.5-13.9 13.9z"/><linearGradient id="a" gradientUnits="userSpaceOnUse" x1="98.068" y1="243.362" x2="98.068" y2="10.013" gradientTransform="translate(.248 .208)"><stop offset="0" stop-color="#0babdf"/><stop offset=".283" stop-color="#12aade"/><stop offset=".505" stop-color="#20a5db"/><stop offset=".706" stop-color="#2e9cd5"/><stop offset=".893" stop-color="#3c8fcc"/><stop offset="1" stop-color="#4486c6"/></linearGradient><path fill="url(#a)" d="M127.1 10.3c-63.7 0-115.6 52.3-115.7 116.6-.1 64.3 51.8 116.7 115.5 116.8 15.8 0 30.8-3.2 44.5-9v-58.6L51.1 176v-14.7l134-135.1c-17.1-10.1-36.9-15.9-58-15.9"/><linearGradient id="b" gradientUnits="userSpaceOnUse" x1="221.499" y1="147.39" x2="221.499" y2="36.912" gradientTransform="translate(.248 .208)"><stop offset="0" stop-color="#0babdf"/><stop offset=".283" stop-color="#12aade"/><stop offset=".505" stop-color="#20a5db"/><stop offset=".706" stop-color="#2e9cd5"/><stop offset=".893" stop-color="#3c8fcc"/><stop offset="1" stop-color="#4486c6"/></linearGradient><path fill="url(#b)" d="M200.8 37.3l-.1 110.5h40.1c1.2-6.7 1.9-13.7 1.9-20.7-.1-36-16.4-68.4-41.9-89.8"/><linearGradient id="c" gradientUnits="userSpaceOnUse" x1="133.331" y1="150.636" x2="133.331" y2="69.046" gradientTransform="translate(.248 .208)"><stop offset="0" stop-color="#0babdf"/><stop offset=".283" stop-color="#12aade"/><stop offset=".505" stop-color="#20a5db"/><stop offset=".706" stop-color="#2e9cd5"/><stop offset=".893" stop-color="#3c8fcc"/><stop offset="1" stop-color="#4486c6"/></linearGradient><path fill="url(#c)" d="M175.4 69.4l-83.8 81.5 83.7.1z"/><linearGradient id="d" gradientUnits="userSpaceOnUse" x1="216.121" y1="216.435" x2="216.121" y2="175.739" gradientTransform="translate(.248 .208)"><stop offset="0" stop-color="#0babdf"/><stop offset=".283" stop-color="#12aade"/><stop offset=".505" stop-color="#20a5db"/><stop offset=".706" stop-color="#2e9cd5"/><stop offset=".893" stop-color="#3c8fcc"/><stop offset="1" stop-color="#4486c6"/></linearGradient><path fill="url(#d)" d="M200.7 176.1v40.7c13.1-11 23.9-24.9 31.2-40.7h-31.2z"/><path fill-rule="evenodd" clip-rule="evenodd" fill="#FFF" d="M144 126c-.8-3.8-2.5-7.4-3.7-11.2 3.1 1.6 6.5 4.4 9.7 6.5 3.2-2 6.2-4.7 9.4-6.9-.8 3.7-2.3 7.5-3.2 11.2 3.3 2.3 6.5 4.5 9.8 6.8-3.9.3-7.9.2-11.9.4-1.2 3.8-2.2 7.5-3.5 11.3-1.3-3.7-2.7-7.3-3.8-11-4-.1-7.9.1-11.8.2 2.4-2.6 6.2-4.8 9-7.3z"/><g fill="#FFF"><path d="M69.8 133c-.7 2-2.7 5.4-6.2 8.9-8 8-19.2 9-28.5-.4-8.9-8.9-8.9-21-.1-29.9 3.6-3.6 6.6-5 8-5.5l2.1 3.9c-2.1.7-4.6 2.2-6.9 4.6-6.7 6.7-6.9 15.4.6 22.9 7 7 15.5 7.5 22.4.5 2.2-2.2 4.1-5 4.8-7.2l3.8 2.2zM85.2 90.4c9.8 9.8 9 21 1.8 28.3-7.5 7.5-18.7 7-27.3-1.7-9.1-9.1-9.3-20.6-1.7-28.2 7.7-7.8 18.7-6.8 27.2 1.6zM63.5 113c6.1 6.1 14.9 8.3 20.7 2.5 5.8-5.8 3.8-14.5-2.7-21-5.7-5.7-14.6-8.6-20.7-2.5-6.2 6.1-3.6 14.7 2.7 21zM76.4 72c1.9-2.6 4.3-5.5 7.2-8.4 5.3-5.3 10.3-7.8 15.1-8 4.9-.2 9.6 1.6 14.3 6.2 4.7 4.7 7 9.9 7 15.2 0 5.3-3 11.2-8.5 16.7-2.6 2.6-5 4.7-7 6.3L76.4 72zm28.9 21.6c1.1-.8 2.5-2.1 3.9-3.5 7.9-7.9 7.8-16.5.1-24.3-6.7-6.8-14.8-7.3-22.6.5-1.9 1.9-3.2 3.5-3.9 4.7l22.5 22.6zM134.1 43.9L123 55l10.3 10.3L145.7 53l3.1 3.1-16.1 16-28.5-28.6 15.4-15.4 3.1 3.1L111 42.9l9 9 11.1-11.1 3 3.1z"/></g><g fill="#FFF"><path d="M96 185.1c2.9-.5 6.8-.9 11.6-.9 6 0 10.4 1.4 13.2 3.9 2.6 2.2 4.1 5.6 4.1 9.8 0 4.3-1.3 7.6-3.6 10-3.2 3.4-8.4 5.2-14.4 5.1-1.8 0-3.5-.1-4.9-.4v18.8h-6.1l.1-46.3zm6.1 22.7c1.3.3 3 .5 5 .5 7.3 0 11.8-3.5 11.8-10 0-6.2-4.4-9.2-11.1-9.2-2.6 0-4.7.2-5.7.5v18.2zM133.1 185.2c3.1-.6 7.5-1 11.6-1 6.5 0 10.7 1.2 13.6 3.8 2.4 2.1 3.7 5.3 3.7 8.9 0 6.2-3.9 10.3-8.9 12v.2c3.6 1.3 5.8 4.6 6.9 9.5 1.5 6.6 2.6 11.1 3.6 12.9h-6.3c-.8-1.3-1.8-5.4-3.1-11.2-1.4-6.5-3.9-8.9-9.4-9.1h-5.7v20.4H133l.1-46.4zm6.1 21.4h6.2c6.5 0 10.6-3.5 10.6-8.9 0-6.1-4.4-8.7-10.8-8.8-2.9 0-5 .3-6 .6v17.1z"/></g></svg>