<svg xmlns="http://www.w3.org/2000/svg" width="260" height="264" viewBox="0 0 260 264">
  <defs>
    <filter id="code-4-pr-a" width="112.8%" height="112.6%" x="-6.4%" y="-6.3%" filterUnits="objectBoundingBox">
      <feOffset dx="1" dy="3" in="SourceAlpha" result="shadowOffsetOuter1"/>
      <feGaussianBlur in="shadowOffsetOuter1" result="shadowBlurOuter1" stdDeviation="2.5"/>
      <feColorMatrix in="shadowBlurOuter1" result="shadowMatrixOuter1" values="0 0 0 0 0   0 0 0 0 0   0 0 0 0 0  0 0 0 0.5 0"/>
      <feMerge>
        <feMergeNode in="shadowMatrixOuter1"/>
        <feMergeNode in="SourceGraphic"/>
      </feMerge>
    </filter>
    <linearGradient id="code-4-pr-b" x1="50.038%" x2="50.038%" y1="99.944%" y2="-.034%">
      <stop offset="0%" stop-color="#0BABDF"/>
      <stop offset="28.3%" stop-color="#12AADE"/>
      <stop offset="50.5%" stop-color="#20A5DB"/>
      <stop offset="70.6%" stop-color="#2E9CD5"/>
      <stop offset="89.3%" stop-color="#3C8FCC"/>
      <stop offset="100%" stop-color="#4486C6"/>
    </linearGradient>
    <linearGradient id="code-4-pr-c" x1="50.112%" x2="50.112%" y1="99.817%" y2="-.163%">
      <stop offset="0%" stop-color="#0BABDF"/>
      <stop offset="28.3%" stop-color="#12AADE"/>
      <stop offset="50.5%" stop-color="#20A5DB"/>
      <stop offset="70.6%" stop-color="#2E9CD5"/>
      <stop offset="89.3%" stop-color="#3C8FCC"/>
      <stop offset="100%" stop-color="#4486C6"/>
    </linearGradient>
    <linearGradient id="code-4-pr-d" x1="50.094%" x2="50.094%" y1="99.809%" y2="-.179%">
      <stop offset="0%" stop-color="#0BABDF"/>
      <stop offset="28.3%" stop-color="#12AADE"/>
      <stop offset="50.5%" stop-color="#20A5DB"/>
      <stop offset="70.6%" stop-color="#2E9CD5"/>
      <stop offset="89.3%" stop-color="#3C8FCC"/>
      <stop offset="100%" stop-color="#4486C6"/>
    </linearGradient>
    <linearGradient id="code-4-pr-e" x1="50.221%" x2="50.221%" y1="99.614%" y2="-.376%">
      <stop offset="0%" stop-color="#0BABDF"/>
      <stop offset="28.3%" stop-color="#12AADE"/>
      <stop offset="50.5%" stop-color="#20A5DB"/>
      <stop offset="70.6%" stop-color="#2E9CD5"/>
      <stop offset="89.3%" stop-color="#3C8FCC"/>
      <stop offset="100%" stop-color="#4486C6"/>
    </linearGradient>
  </defs>
  <g fill="none" fill-rule="evenodd" filter="url(#code-4-pr-a)" transform="translate(4 2)">
    <path fill="#FFF" fill-rule="nonzero" d="M125.1,0.799867928 C194,0.9 250.1,57.6 250.000133,127.1 C249.9,196.6 193.7,253.3 124.9,253.200132 C56,253.1 -0.1,196.4 -0.000133482536,126.9 C0.1,57.4 56.2,0.7 125.1,0.799867928"/>
    <polygon fill="#EE254E" points="150.4 148.3 169.7 128.9 222.1 181.4 202.7 200.7"/>
    <g fill-rule="nonzero" transform="translate(89 70)">
      <path fill="#EE254E" d="M59,141.9 C40.1,121.5 20,101.6 0.6,81.4 C28.5,54.3 56.5,27.1 84.5,0 C104.1,20.1 123.6,40.3 143.2,60.4 C115.1,87.5 86.8,115.2 59,141.9 Z M79.2,45.8 C78.9,49 78.4,53.6 78,57 C77.8,58.3 77.5,60 77.8,60.7 C78.5,62.3 80.4,63.3 81.7,64.7 C91,74.3 100.1,83.6 109.2,93 C114.8,87.5 120.5,82.1 126.1,76.6 C111,61.3 96.1,45.2 80.8,30.3 C80.5,35 79.8,40.1 79.2,45.8 L79.2,45.8 Z M38.6,59.4 C41.8,58.8 45.1,58.1 48.3,57.6 C47.4,60.8 46.9,64 46.2,67.1 C49.1,63.5 51.6,59.9 54.4,56.3 C57.7,55.6 60.9,55.2 64.3,54.4 C62.7,52.8 61.1,51.1 59.6,49.5 C62.1,46 65.1,42.3 67.5,38.8 C63.9,41.3 60.1,44.1 56.6,46.4 C55,45 53.6,42.8 51.8,41.8 C50.9,45.1 50.7,48.1 49.5,51.5 C45.8,54.4 41.7,56.8 38.6,59.4 L38.6,59.4 Z M61,76.8 C56.1,77.2 50.8,77.6 45.6,78 C41.2,78.4 36.9,78.4 32.6,78.8 C32.1,78.9 31,78.9 31,79.3 C45.9,94.7 60.9,110.1 75.8,125.5 C81.4,120.1 86.9,114.7 92.5,109.3 C82,98.5 71.5,87.6 61,76.8 Z"/>
      <path fill="#FFF" d="M0.6,81.4 C20,101.6 40.1,121.6 59,141.9 C39.6,121.7 19.5,101.7 0.6,81.4 Z M49.3,51.6 C50.5,48.2 50.8,45.2 51.6,41.9 C53.4,42.9 54.8,45.1 56.4,46.5 C59.9,44.2 63.7,41.4 67.3,38.9 C64.9,42.4 61.9,46.1 59.4,49.6 C61,51.2 62.5,52.8 64.1,54.5 C60.7,55.3 57.5,55.8 54.2,56.4 C51.4,60 48.9,63.5 46,67.2 C46.7,64 47.3,60.9 48.1,57.7 C44.9,58.1 41.7,58.8 38.4,59.5 C41.7,56.8 45.8,54.4 49.3,51.6 L49.3,51.6 Z"/>
    </g>
    <path fill="#FFF" fill-rule="nonzero" d="M132.3,161.7 L147.8,146.2 L200.2,198.7 L184.7,214.2 L132.3,161.7 Z M165.8,124.8 L179.7,110.9 L232.1,163.4 L218.2,177.3 L165.8,124.8 Z"/>
    <path fill="url(#code-4-pr-b)" fill-rule="nonzero" d="M125.1,10.3 C61.4,10.3 9.5,62.6 9.39985573,126.9 C9.3,191.2 61.2,243.6 124.9,243.7 C140.7,243.7 155.7,240.5 169.4,234.7 L169.4,176.1 L49.1,176 L49.1,161.3 L183.1,26.2 C166,16.1 146.2,10.3 125.1,10.3"/>
    <path fill="url(#code-4-pr-c)" fill-rule="nonzero" d="M198.8,37.3 L198.7,147.8 L238.8,147.8 C240,141.1 240.7,134.1 240.7,127.1 C240.6,91.1 224.3,58.7 198.8,37.3"/>
    <polygon fill="url(#code-4-pr-d)" fill-rule="nonzero" points="173.4 69.4 89.6 150.9 173.3 151"/>
    <path fill="url(#code-4-pr-e)" fill-rule="nonzero" d="M198.7,176.1 L198.7,216.8 C211.8,205.8 222.6,191.9 229.9,176.1 L198.7,176.1 L198.7,176.1 Z"/>
    <path fill="#FFF" d="M142,126 C141.2,122.2 139.5,118.6 138.3,114.8 C141.4,116.4 144.8,119.2 148,121.3 C151.2,119.3 154.2,116.6 157.4,114.4 C156.6,118.1 155.1,121.9 154.2,125.6 C157.5,127.9 160.7,130.1 164,132.4 C160.1,132.7 156.1,132.6 152.1,132.8 C150.9,136.6 149.9,140.3 148.6,144.1 C147.3,140.4 145.9,136.8 144.8,133.1 C140.8,133 136.9,133.2 133,133.3 C135.4,130.7 139.2,128.5 142,126 L142,126 Z"/>
    <path fill="#FFF" fill-rule="nonzero" d="M41.8,105 C41.1,107 39.1,110.4 35.6,113.9 C27.6,121.9 16.4,122.9 7.1,113.5 C-1.8,104.6 -1.8,92.5 7,83.6 C10.6,80 13.6,78.6 15,78.1 L17.1,82 C15,82.7 12.5,84.2 10.2,86.6 C3.5,93.3 3.3,102 10.8,109.5 C17.8,116.5 26.3,117 33.2,110 C35.4,107.8 37.3,105 38,102.8 L41.8,105 Z M57.2,62.4 C67,72.2 66.2,83.4 59,90.7 C51.5,98.2 40.3,97.7 31.7,89 C22.6,79.9 22.4,68.4 30,60.8 C37.7,53 48.7,54 57.2,62.4 L57.2,62.4 Z M35.5,85 C41.6,91.1 50.4,93.3 56.2,87.5 C62,81.7 60,73 53.5,66.5 C47.8,60.8 38.9,57.9 32.8,64 C26.6,70.1 29.2,78.7 35.5,85 Z M48.4,44 C50.3,41.4 52.7,38.5 55.6,35.6 C60.9,30.3 65.9,27.8 70.7,27.6 C75.6,27.4 80.3,29.2 85,33.8 C89.7,38.5 92,43.7 92,49 C92,54.3 89,60.2 83.5,65.7 C80.9,68.3 78.5,70.4 76.5,72 L48.4,44 Z M77.3,65.6 C78.4,64.8 79.8,63.5 81.2,62.1 C89.1,54.2 89,45.6 81.3,37.8 C74.6,31 66.5,30.5 58.7,38.3 C56.8,40.2 55.5,41.8 54.8,43 L77.3,65.6 Z M106.1,15.9 L95,27 L105.3,37.3 L117.7,25 L120.8,28.1 L104.7,44.1 L76.2,15.5 L91.6,0.1 L94.7,3.2 L83,14.9 L92,23.9 L103.1,12.8 L106.1,15.9 Z" transform="translate(26 28)"/>
    <path fill="#FFF" fill-rule="nonzero" d="M1,1.1 C3.9,0.6 7.8,0.2 12.6,0.2 C18.6,0.2 23,1.6 25.8,4.1 C28.4,6.3 29.9,9.7 29.9,13.9 C29.9,18.2 28.6,21.5 26.3,23.9 C23.1,27.3 17.9,29.1 11.9,29 C10.1,29 8.4,28.9 7,28.6 L7,47.4 L0.9,47.4 L1,1.1 L1,1.1 Z M7.1,23.8 C8.4,24.1 10.1,24.3 12.1,24.3 C19.4,24.3 23.9,20.8 23.9,14.3 C23.9,8.1 19.5,5.1 12.8,5.1 C10.2,5.1 8.1,5.3 7.1,5.6 L7.1,23.8 Z M38.1,1.2 C41.2,0.6 45.6,0.2 49.7,0.2 C56.2,0.2 60.4,1.4 63.3,4 C65.7,6.1 67,9.3 67,12.9 C67,19.1 63.1,23.2 58.1,24.9 L58.1,25.1 C61.7,26.4 63.9,29.7 65,34.6 C66.5,41.2 67.6,45.7 68.6,47.5 L62.3,47.5 C61.5,46.2 60.5,42.1 59.2,36.3 C57.8,29.8 55.3,27.4 49.8,27.2 L44.1,27.2 L44.1,47.6 L38,47.6 L38.1,1.2 L38.1,1.2 Z M44.2,22.6 L50.4,22.6 C56.9,22.6 61,19.1 61,13.7 C61,7.6 56.6,5 50.2,4.9 C47.3,4.9 45.2,5.2 44.2,5.5 L44.2,22.6 L44.2,22.6 Z" transform="translate(93 184)"/>
  </g>
</svg>
