<svg xmlns="http://www.w3.org/2000/svg" width="96" height="96" viewBox="0 0 96 96">
  <g fill="none" fill-rule="evenodd" stroke-linecap="round" stroke-linejoin="round" stroke-width="2.5" transform="translate(3 27)">
    <line x1="77.809" x2="57.329" y1="35.143" y2="39.056" stroke="#000"/>
    <path stroke="#000" d="M54.4955025,11.8763817 L40.7310109,16.4248555 C38.5260361,17.1507439 36.1272505,16.1075709 35.154566,13.9997966 C34.1018017,11.7406411 35.0308283,9.05366436 37.254167,7.92722678 L50.5860376,1.22358597 C52.8828798,0.0652489672 55.5569302,-0.0899350401 57.9723464,0.794933978 L77.7101829,8.01454478"/>
    <path stroke="#000" d="M11.9041647 35.174411L21.6083694 35.174411 35.547497 50.7963946C37.0012474 52.481019 39.3490264 53.0844219 41.4349007 52.3095169 43.5207751 51.534612 44.9051391 49.5447131 44.9063988 47.3195507L44.9063988 44.8786158 45.6009737 45.1564458C47.6255767 45.966252 49.9200002 45.719239 51.7258432 44.4970547 53.5316861 43.2748704 54.6138265 41.2366439 54.6145725 39.0560929L56.5554134 39.0560929C58.7608965 39.0545916 60.7764976 37.8079333 61.7628199 35.8352888 62.7491421 33.8626443 62.5371081 31.5021684 61.2150193 29.7368812L48.7563287 13.7735636M39.2823259 6.90322481L37.861424 5.73236984C36.4296115 4.67802888 34.6981422 4.10921687 32.9200191 4.10904834 31.8605017 4.10866326 30.8108056 4.31213453 29.8281682 4.70836787L12.1621497 11.7731877"/>
    <path stroke="#886944" d="M.255149993 5.01794986L8.19314977 5.01794986C10.2914204 4.9305033 12.0656317 6.55568088 12.1621497 8.65355376L12.1621497 34.1226261C12.0656139 36.2210774 10.292092 37.8473969 8.19314977 37.762199L.255149993 37.762199M89.5576475 37.762199L81.6196477 37.762199C79.5207056 37.8473969 77.7471837 36.2210774 77.6506479 34.1226261L77.6506479 8.65355376C77.7471658 6.55568088 79.5213772 4.9305033 81.6196477 5.01794986L89.5576475 5.01794986"/>
    <line x1="44.906" x2="41.025" y1="44.879" y2="40.997" stroke="#000"/>
    <line x1="54.615" x2="48.788" y1="39.056" y2="33.23" stroke="#000"/>
  </g>
</svg>
