<svg xmlns="http://www.w3.org/2000/svg" width="17" height="18" viewBox="0 0 17 18">
  <g fill="#FFF" transform="translate(1 1)">
    <path stroke="#FFF" stroke-width=".5" d="M11.2371291,6.92626953 L11.2371291,3.89831544 C11.2371291,3.8116455 11.1958688,3.73156738 11.1375007,3.66821288 L7.63918478,0.103393562 C7.57389797,0.0367431562 7.48106242,0 7.38835265,0 L1.84186772,0 C0.817909044,0 0,0.81030275 0,1.80407716 L0,11.9816894 C0,12.9754639 0.817909044,13.7724609 1.84186772,13.7724609 L6.21998307,13.7724609 C7.04808134,15.1063233 8.55332581,16 10.2680163,16 C12.8728214,16 15,13.9458008 15,11.4147949 C15.0035109,9.20385744 13.3676928,7.35644531 11.2371291,6.92626953 Z M7.73202033,1.17053222 L10.0790746,3.56811525 L8.55672224,3.56811525 C8.10311104,3.56811525 7.73202033,3.20471191 7.73202033,2.76452637 L7.73202033,1.17053222 Z M1.84186772,13.1054688 C1.19931479,13.1054688 0.687335424,12.6052246 0.687335424,11.9816894 L0.687335424,1.80407716 C0.687335424,1.17712403 1.19931479,0.666992188 1.84186772,0.666992188 L7.04468491,0.666992188 L7.04468491,2.76452637 C7.04468491,3.57482909 7.72170529,4.23510744 8.55672224,4.23510744 L10.5497937,4.23510744 L10.5497937,6.83947753 C10.4467689,6.83618163 10.3642484,6.82617188 10.274935,6.82617188 C9.07562023,6.82617188 7.97253742,7.27307128 7.14091693,7.97338869 L2.77663887,7.97338869 C2.5875713,7.97338869 2.43297116,8.12341309 2.43297116,8.30676269 C2.43297116,8.49023438 2.5875713,8.64025878 2.77663887,8.64025878 L6.5017604,8.64025878 C6.25772107,8.97375487 6.05494206,9.30725097 5.89694548,9.67407225 L2.77663887,9.67407225 C2.5875713,9.67407225 2.43297116,9.82409669 2.43297116,10.0075684 C2.43297116,10.190918 2.5875713,10.3410644 2.77663887,10.3410644 L5.67353631,10.3410644 C5.58761937,10.6745606 5.54296269,11.0446777 5.54296269,11.4147949 C5.54296269,12.0150147 5.66322123,12.6086426 5.87971176,13.1088867 L1.84186772,13.1088867 L1.84186772,13.1054688 Z M10.2715386,15.3364258 C8.04474287,15.3364258 6.23369455,13.5789795 6.23369455,11.4180908 C6.23369455,9.25720216 8.04122066,7.49975587 10.2715386,7.49975587 C12.5017307,7.49975587 14.3092568,9.25720216 14.3092568,11.4180908 C14.3092568,13.5789795 12.4983343,15.3364258 10.2715386,15.3364258 Z"/>
    <path d="M2.32978242,7 L5.67021755,7 C5.85164617,7 6,6.77489017 6,6.5 C6,6.22492678 5.85164617,6 5.67021755,6 L2.32978242,6 C2.1483538,6 2,6.22492678 2,6.5 C2,6.77489017 2.1483538,7 2.32978242,7 Z"/>
    <path stroke="#FFF" stroke-width=".5" d="M11.497308,11.4223375 L10.2983837,12.8550694 L10.2983837,9.32343606 C10.2983837,9.14549888 10.1670328,9 10.0066351,9 C9.84613068,9 9.71488655,9.14549888 9.71488655,9.32343606 L9.71488655,12.8550694 L8.50709874,11.4223375 C8.39625136,11.2930577 8.20958353,11.2833499 8.09286275,11.4062367 C7.97614197,11.5291234 7.96738523,11.7328692 8.0783394,11.8622674 L9.78494038,13.8965289 C9.84036407,13.9611687 9.91618451,14 9.9978784,14 C10.0795723,14 10.1553927,13.9611687 10.2108164,13.8965289 L11.9204075,11.8622674 C12.0312549,11.7328692 12.0253814,11.525927 11.9086607,11.4062367 C11.7890566,11.2833499 11.6082622,11.2930577 11.497308,11.4223375 Z"/>
  </g>
</svg>
