<svg xmlns="http://www.w3.org/2000/svg" width="54" height="65"><g fill="none"><path fill="#6FE3FF" d="M38.44 41.006c5.913-1.56 12.026 1.709 14.023 7.496 1.997 5.787-.798 12.138-6.41 14.567-5.612 2.43-12.146.116-14.986-5.306-2.841-5.422-1.029-12.12 4.156-15.365a11.556 11.556 0 013.217-1.392z"/><path fill="#6D7375" d="M35.383 26.168l3.057 14.838a11.556 11.556 0 00-3.217 1.392l-3.144-2.844-2.7 3.317h-.005l-2.247-.764v-3.748c4.538-1.943 7.71-6.837 7.71-12.024v-.018c.187-.032.37-.082.546-.15z"/><path fill="#F7CAA5" d="M16.229 38.36a12.208 12.208 0 01-4.23-3.06 13.507 13.507 0 01-3.481-8.965v-.018a3.085 3.085 0 01-2.074-1.397 3.093 3.093 0 01-.386-2.38 2.324 2.324 0 012.077-1.77L8.1 19.233l.418.418a2.07 2.07 0 003.323-.551c.25-.52.714-.962 1.249-.992 2.242-.126 6.236-.33 10.15-3.066a16.373 16.373 0 0011.84 5.066h.143l-.002.662a2.324 2.324 0 012.077 1.77 3.09 3.09 0 01-2.46 3.777v.018c0 5.187-3.173 10.08-7.71 12.024-1.349.582-2.801.882-4.269.883h-2.364c-1.467-.001-2.919-.301-4.266-.883z"/><path fill="#6D7375" d="M26.531 12.022a17.417 17.417 0 01-3.29 3.02c-3.915 2.736-7.91 2.94-10.151 3.066-.535.03-1 .472-1.249.992a2.044 2.044 0 01-.97.959 2.07 2.07 0 01-2.353-.408l-.418-.418-.014-4.659c0-4.868 2.598-9.365 6.813-11.791a13.561 13.561 0 0113.603.042 13.604 13.604 0 016.741 11.832l-.016 4.44c-3.998-.958-7.26-3.613-8.445-6.973l-.25-.102z"/><path fill="#3B484C" d="M35.227 19.097l-.004 1.011h-.142c-4.472 0-8.75-1.83-11.84-5.066a17.417 17.417 0 003.29-3.02l.25.102c1.186 3.36 4.448 6.015 8.446 6.973z"/><path fill="#CC7350" d="M32.095 43.793l.98.333c-4.27 4.352-4.483 11.258-.49 15.866h-10.92v-6.065l.013.013 10.417-10.147z"/><path fill="#E2D574" d="M32.095 43.793L21.678 53.94l-.013-.013v-6.39l.013.013 5.449-5.443 2.247.763.005.001v.002z"/><path fill="#EDB288" d="M21.665 47.537l-5.436-5.43v-3.748c1.347.582 2.799.882 4.266.883h2.364c1.468-.001 2.92-.301 4.268-.883v3.748l-5.45 5.443-.012-.013z"/><path fill="#E48E66" d="M21.665 53.927v6.065H.909v-8.024a6.5 6.5 0 014.407-6.156l5.945-2.019 10.404 10.134z"/><path fill="#F8EC7D" d="M21.665 47.537v6.39L11.261 43.793l2.87-.974 2.098-.712z"/><path fill="#6D7375" d="M16.229 38.36v3.747l-2.098.712c-1.048-.002-2.077-.075-2.939-.082l-.205-3.833-3.663 3.872a25.343 25.343 0 01-3.153-.492l4.248-15.986c.033.008.067.014.099.02v.017a13.507 13.507 0 003.481 8.965 12.208 12.208 0 004.23 3.06z"/><path fill="#63316D" d="M25.938 54.736H24.64a.91.91 0 000 1.82h1.298a.91.91 0 000-1.82z"/><path fill="#63316D" d="M.909 60.902H32.18a12.576 12.576 0 0015.904 2.11 12.618 12.618 0 005.06-15.247 12.586 12.586 0 00-14-7.845l-2.73-13.255a3.996 3.996 0 001.766-4.34 3.201 3.201 0 00-2.048-2.28l.003-.918v-.004l.016-4.46A14.513 14.513 0 0028.958 2.04a14.469 14.469 0 00-14.513-.043 14.513 14.513 0 00-7.268 12.58l.014 4.656v.022l.019.796a3.202 3.202 0 00-2.035 2.275 3.991 3.991 0 002.15 4.55L3.292 42.05a.911.911 0 00.66 1.118c1.081.24 2.176.412 3.278.514a.907.907 0 00.752-.28l2.21-2.335.092 1.72c.006.12.037.238.09.347L5.023 44.95A7.406 7.406 0 000 51.967v8.025a.91.91 0 00.909.91zM15.986 43.15l4.77 4.765v3.857l-7.797-7.594 3.027-1.028zM35.25 30.022l2.133 10.353c-.707.239-1.39.54-2.043.902l-2.651-2.399a.908.908 0 00-1.313.1l-2.302 2.83-1.038-.353v-2.513c2.218-1.1 4.09-2.79 5.413-4.886a14.517 14.517 0 001.8-4.034zM22.574 47.94l4.795-4.79 1.683.57c.012.005.024.01.036.013l1.308.444-7.822 7.62V47.94zm10.267-4.855l-1.93-.655 1.269-1.56 1.585 1.434c-.32.245-.628.505-.924.78zM26.22 41.73l-4.541 4.535-4.54-4.535v-2.073c1.088.329 2.22.496 3.357.495h2.364c1.138 0 2.27-.166 3.36-.495v2.073zm-3.645 12.607l7.322-7.133a12.646 12.646 0 00.884 11.878h-8.206v-4.745zm29.609-2.012A10.783 10.783 0 0143.4 62.921a10.769 10.769 0 01-12.023-6.681 10.796 10.796 0 017.293-14.354 10.772 10.772 0 019.315 1.897 10.806 10.806 0 014.198 8.542zm-25.79-38.796c1.113 2.236 3.087 4.12 5.558 5.345a15.569 15.569 0 01-7.316-3.741 18.393 18.393 0 001.759-1.604zM12.707 5.602A12.656 12.656 0 0126.55 2.866a12.688 12.688 0 017.783 11.788l-.012 3.236c-3.133-1.054-5.598-3.227-6.611-5.877a23.604 23.604 0 002-3.003.908.908 0 10-1.583-.895 21.243 21.243 0 01-2.289 3.317 16.606 16.606 0 01-3.118 2.864c-3.672 2.565-7.4 2.775-9.628 2.9l-.054.003c-.82.046-1.594.623-2.017 1.505a1.12 1.12 0 01-.54.532c-.445.211-.974.119-1.323-.23l-.152-.152-.013-4.28a12.615 12.615 0 013.712-8.972zM6.94 22.757a1.412 1.412 0 011.278-1.08.909.909 0 00.794-.672 2.986 2.986 0 003.066-.697c.239-.237.435-.512.581-.815.137-.286.356-.47.48-.477l.055-.003c2.144-.12 6.04-.341 9.93-2.803A17.376 17.376 0 0034.341 21c.097.37.415.64.795.676a1.41 1.41 0 011.277 1.079 2.18 2.18 0 01-1.73 2.665.91.91 0 00-.755.897v.018c0 4.781-2.944 9.382-7.16 11.187a10.15 10.15 0 01-.537.211h-.014v.005a9.826 9.826 0 01-3.359.593h-2.364a9.823 9.823 0 01-3.358-.593v-.005h-.013a9.737 9.737 0 01-.538-.211 11.372 11.372 0 01-3.913-2.833 12.628 12.628 0 01-3.246-8.354v-.018a.91.91 0 00-.795-.904l-.026-.006a2.176 2.176 0 01-1.665-2.65zm5.56 19.109l-.447-.017-.16-2.994a.91.91 0 00-1.567-.577l-3.353 3.545a29.191 29.191 0 01-1.677-.242l2.95-11.102a14.544 14.544 0 003.078 5.431 13.32 13.32 0 003.995 3.031v2.513l-1.335.453c-.502-.004-1-.022-1.485-.041zM1.816 51.968a5.587 5.587 0 013.79-5.294l5.42-1.84 9.73 9.477v4.771H1.817v-7.114z"/><path fill="#63316D" d="M41.409 53.422h4.769a.91.91 0 000-1.82h-3.86v-4.698a.91.91 0 10-1.818 0v5.608a.91.91 0 00.909.91z"/></g></svg>