<svg xmlns="http://www.w3.org/2000/svg" width="36" height="39" viewBox="0 0 36 39">
  <g fill="none" transform="matrix(-1 0 0 1 36 0)">
    <path fill="#F9F5F2" d="M12.8897951.2745C12.8812951.201646552 12.8812951.135465517 12.8812951.0692844828L12.8812951.724732759 12.9665951.724732759C12.9238951.576387931 12.8982951.426103448 12.8897951.2745zM2.62006358 17.937931L7.74972832 17.937931C9.16424855 17.9332759 10.310052 16.7502414 10.3145607 15.2897586L10.3145607 11.9795431.0552312139 11.9795431.0552312139 15.2897586C.0597398844 16.7501638 1.20554335 17.9332759 2.62006358 17.937931z" transform="translate(13 15)"/>
    <path fill="#C84339" d="M28.8620265,29 L22.6851627,29 L22.6851627,30.2857035 C22.6806052,31.7038497 21.5224053,32.8525903 20.0925813,32.8571106 L14.9074187,32.8571106 C13.4775947,32.8525903 12.3193948,31.7038497 12.3148373,30.2857035 L12.3148373,29 L6.13797354,29 C3.69381315,29.0032395 1.58211874,30.6939555 1.06294923,33.0628563 L0,38 L6.48145335,38 L7.12959868,34.1428894 L6.48145335,38 L28.5185467,38 L27.8704013,34.1428894 L28.5185467,38 L35,38 L33.9370508,33.0628563 C33.4178053,30.6939555 31.3061868,29.0032395 28.8620265,29 Z"/>
    <path fill="#F9F5F2" d="M18.3478686 13.3025243L18.3478686 3.18881553C18.0908102 3.28225243 17.8220255 3.33794175 17.5500219 3.35448544 15.9281168 3.45654369 14.5318467 2.2072233 14.4304489.564271845 14.418646.39192233 14.4226314.218951456 14.4435547.0473009709L14.253865.0473009709C13.7136898 1.59883495 12.0348394 2.41266019 10.5045219 1.86524272 9.71188686 1.58221359 9.07751825.968543689 8.76029562.179805825 8.27767883.926058252 7.45622628 1.37475728 6.57598905 1.37273786 6.10640146 1.37071845 5.64601095 1.24287379 5.24187591 1.0015534 5.26019343 1.12419417 5.26931387 1.2487767 5.26801095 1.37273786 5.26801095 2.83681553 4.09668613 4.02376699 2.65205474 4.02376699L2.65205474 13.3025243C2.65205474 14.7666019 3.82337956 15.9535534 5.26801095 15.9535534L15.7319124 15.9535534C17.1765438 15.9535534 18.3478686 14.7665243 18.3478686 13.3025243zM6.57598905 6.67487379C6.21500365 6.67487379 5.922 6.37794175 5.922 6.0121165 5.922 5.64629126 6.21500365 5.34935922 6.57598905 5.34935922 6.93697445 5.34935922 7.2299781 5.64629126 7.2299781 6.0121165 7.2299781 6.37801942 6.93697445 6.67487379 6.57598905 6.67487379zM14.4238577 6.67487379C14.0628723 6.67487379 13.7698686 6.37794175 13.7698686 6.0121165 13.7698686 5.64629126 14.0628723 5.34935922 14.4238577 5.34935922 14.7848431 5.34935922 15.0778467 5.64629126 15.0778467 6.0121165 15.0779234 6.37801942 14.7849197 6.67487379 14.4238577 6.67487379zM2.37077737 4.6998835C1.32376642 4.81786408.448664234 5.55945631.147229927 6.58213592.073959854 6.82733981.0360218978 7.08186408.0360218978 7.33770874.0360218978 8.80178641 1.20734672 9.98873786 2.6519781 9.98873786L2.6519781 4.68660194C2.56046715 4.68660194 2.46236496 4.69328155 2.37077737 4.6998835zM18.4132445 4.68660194L18.3478686 4.68660194 18.3478686 9.98866019C19.7925 9.98866019 20.9638248 8.80163107 20.9638248 7.33763107 20.9651277 7.3151068 20.9625219 7.29320388 20.9573102 7.27137864 20.9284927 5.85840777 19.8069088 4.71906796 18.4132445 4.68660194z" transform="translate(8 12)"/>
    <path fill="#FDCA6E" d="M10.0898974,16.4420113 C10.1789915,16.4356075 10.2744229,16.4291284 10.3634424,16.4291284 L10.3634424,15.7862661 C11.7688179,15.7862661 12.9081785,14.6348696 12.9081785,13.2148165 C12.9094459,13.0945765 12.9005738,12.9737337 12.882755,12.8547744 C13.2758873,13.0887754 13.7238181,13.2128577 14.1805465,13.2148165 C15.036819,13.2167753 15.8359073,12.7815455 16.3053847,12.0576944 C16.9008613,13.5356074 18.5695676,14.2453702 20.0315309,13.6436426 C20.7885697,13.331817 21.3770381,12.7082413 21.6493901,11.9290918 L21.8339156,11.9290918 C21.8135619,12.0955896 21.8097595,12.2633682 21.8211665,12.430544 C21.9198038,14.0241767 23.27806,15.2359946 24.8558083,15.1369999 C25.1204811,15.1209528 25.3819481,15.0669352 25.6319334,14.9763032 L25.6319334,15.7927452 C25.6319334,15.8570088 25.6319334,15.9213478 25.6382707,15.9920152 C25.6446079,16.1392264 25.6636942,16.2851568 25.6955295,16.4291284 C27.0512508,16.4606199 28.1422993,17.5656832 28.1703323,18.9363143 C28.448947,18.9916127 28.7333771,19.0108993 29.0164652,18.9941742 C30.7697922,18.8804132 32.1000901,17.3523249 31.9874364,15.5805923 L31.9874364,15.5805923 C31.9327125,14.6433075 31.4689758,13.778649 30.7214056,13.2212956 C32.1293159,12.1599286 32.4187413,10.1458324 31.3684002,8.72253974 C30.7315452,7.86044268 29.7105045,7.37699631 28.6474144,7.43553423 C28.7778123,7.0672049 28.8319398,6.6749933 28.8064417,6.28481585 C28.7078045,4.69118314 27.3495483,3.47936533 25.7718,3.57835995 C25.7082039,3.58476372 25.6381961,3.59124282 25.5746001,3.60405034 C25.2373845,1.85868614 23.5642794,0.719494524 21.8363759,1.06025001 C21.2281503,1.18049006 20.6683113,1.4767959 20.2242574,1.91330646 C18.9627,0.672558714 16.9453711,0.699605192 15.7168418,1.97440589 C15.6220815,2.07279781 15.5342549,2.17691545 15.45284,2.28623143 C14.050074,1.22230286 12.0594361,1.50904073 11.0065601,2.92653231 C10.6502583,3.40613642 10.4339721,3.97765336 10.3824541,4.57486068 C9.9924531,4.33829817 9.5458643,4.21353782 9.09099981,4.21481857 C7.68562435,4.21481857 6.54626373,5.366215 6.54626373,6.78626809 C6.54559273,7.02094714 6.57742803,7.25494814 6.64169506,7.48058658 C4.91066019,7.78141272 3.74833641,9.44390471 4.04670843,11.1937892 C4.15615623,11.8353708 4.4551247,12.4280579 4.9049194,12.8934984 C3.67773213,14.1670183 3.70442308,16.2049214 4.96471309,17.4449911 C5.55825124,18.0293909 6.35353718,18.3565855 7.18244775,18.3578663 C7.43310411,18.3571882 7.68316401,18.3269775 7.92681213,18.2678369 C8.22018892,17.2757811 9.07139165,16.5564503 10.0898974,16.4420113 Z"/>
    <g fill="#F9F5F2" transform="translate(14 17)">
      <ellipse cx="8.339" cy=".522" rx="1" ry="1"/>
      <ellipse cx=".659" cy=".522" rx="1" ry="1"/>
    </g>
    <g fill="#231F20">
      <path d="M34.9255732,33.2201543 C34.337523,30.5325059 31.9873556,28.6144219 29.2656653,28.6001016 L23.7837992,28.6001016 L23.7837992,27.8851523 C25.2786276,27.5744473 26.3525272,26.2439531 26.35441,24.7002539 L26.35441,22.0353809 C27.6165941,21.7728164 28.6024519,20.7744316 28.8607782,19.4971816 C28.8851799,19.4971816 28.9095816,19.5010664 28.9340586,19.5010664 C29.0137406,19.5010664 29.0928201,19.5010664 29.1705439,19.4932969 C31.2951464,19.354207 32.9069372,17.5017832 32.7739331,15.3528984 C32.7224937,14.4812637 32.3799665,13.6531992 31.8016318,13.0052051 C33.2218996,11.400416 33.0869372,8.93503711 31.4995481,7.49858789 C30.9513389,7.00263281 30.2746444,6.67570312 29.5490711,6.55550391 C29.7515146,4.58866992 28.3389289,2.82788086 26.394251,2.62313086 C26.3087699,2.61406641 26.2232887,2.60820117 26.1378075,2.60561133 C25.4251883,0.570451172 23.2163849,-0.495498047 21.2035481,0.225316406 C20.8635816,0.346886719 20.5422929,0.515835938 20.2491715,0.727746094 C18.7292636,-0.368748047 16.6522594,-0.209548828 15.312954,1.10540625 C14.7557824,0.804451172 14.1330126,0.648451172 13.5012803,0.651041016 C11.8278075,0.658201172 10.3484184,1.75210547 9.83297071,3.36207422 C9.56244351,3.28795898 9.28287866,3.25093945 9.00263598,3.25093945 C7.2289205,3.25291992 5.79125523,4.70688867 5.78937238,6.5008125 C5.78937238,6.57553711 5.78937238,6.64965234 5.79645188,6.72376758 C3.78557322,7.44069727 2.72967364,9.67078125 3.4385272,11.7045703 C3.55872803,12.0503906 3.72705439,12.3773203 3.93725523,12.6756094 C2.69819247,14.4312188 3.10119665,16.8705469 4.83695397,18.1237266 C5.48992469,18.5949258 6.27198326,18.8491113 7.07467782,18.8504063 C7.07663598,20.3941055 8.15046025,21.7245996 9.6452887,22.0353047 L9.6452887,24.7001777 C9.64724686,26.243877 10.7210711,27.5743711 12.2158996,27.8850762 L12.2158996,28.6000254 L6.73403347,28.6000254 C4.01174059,28.6143457 1.66157322,30.5337246 1.07352301,33.2219824 L0.01958159,38.2138301 C-0.0543012552,38.5648301 0.16674477,38.9099648 0.513790795,38.985375 C0.558150628,38.995125 0.603112971,38.9996953 0.648075314,38.9996953 L35.3515481,38.9996953 C35.7062762,38.9996953 35.9942008,38.7084902 35.9942008,38.3497207 C35.9942008,38.3042461 35.989682,38.2586953 35.9800418,38.2139063 L34.9255732,33.2201543 Z M13.5013556,27.950127 L22.498569,27.950127 L22.498569,30.5500254 C22.498569,31.6270195 21.6354728,32.4999492 20.5706109,32.4999492 L15.4293891,32.4999492 C14.3645272,32.4999492 13.5013556,31.6270195 13.5013556,30.5500254 L13.5013556,27.950127 L13.5013556,27.950127 Z M26.3544854,20.6892715 L26.3544854,17.0175586 C26.3795649,17.026623 26.4065272,17.0331738 26.4309289,17.0429238 C26.4675314,17.0578535 26.5035314,17.0741543 26.5395314,17.0909883 C26.6076904,17.124123 26.6738159,17.1605332 26.7374561,17.2015137 C26.7676569,17.2203281 26.8016987,17.2385332 26.8274561,17.2587187 C26.9103766,17.3172187 26.9887782,17.3828789 27.0620586,17.4537188 L27.0781004,17.4673535 C27.1539414,17.5453535 27.2227029,17.6298281 27.2843849,17.720168 C27.3049456,17.7487324 27.3216653,17.7799629 27.3402678,17.8098984 C27.3807866,17.874873 27.4167113,17.9425137 27.4495481,18.011373 C27.4662678,18.0470977 27.4817071,18.0835078 27.4957908,18.1206035 C27.5240335,18.1934238 27.5478326,18.2674629 27.5665105,18.342873 C27.5754728,18.3785977 27.5864686,18.4131035 27.5934728,18.4488281 C27.617272,18.5625527 27.6307531,18.6789434 27.6333138,18.7952578 C27.6339916,18.8212324 27.6358745,18.8472832 27.6397155,18.8725723 C27.6294728,19.6902012 27.1166611,20.4155859 26.3544854,20.6892715 Z M4.50414226,14.9505586 C4.50158159,14.2706484 4.76314644,13.6167891 5.23355649,13.130584 C5.47840167,12.8777695 5.47840167,12.4734492 5.23355649,12.2206348 C4.2419749,11.193 4.26185774,9.54662109 5.27851883,8.54435156 C5.65064435,8.17712695 6.12361506,7.93269141 6.63582427,7.84303711 C6.98543096,7.78324219 7.22131381,7.44717188 7.16219247,7.09358203 C7.15767364,7.0682168 7.1525523,7.04353711 7.14487029,7.01885742 C7.09794979,6.85051758 7.07415063,6.67570313 7.07482845,6.5008125 C7.07482845,5.42381836 7.93792469,4.55088867 9.00278661,4.55088867 C9.34599163,4.54959375 9.68332218,4.64320898 9.97772385,4.82259375 C10.2823682,5.0071582 10.6769372,4.90645898 10.8594226,4.59834375 C10.9101841,4.51318359 10.9403849,4.41697852 10.9481423,4.31818359 C11.0670628,2.9805293 12.1737238,1.954875 13.501431,1.95099023 C14.058,1.94771484 14.60041,2.130375 15.0437824,2.47093945 C15.1793473,2.57620898 15.35159,2.62175977 15.5206695,2.59639453 C15.6896736,2.57171484 15.8420335,2.47939453 15.9435565,2.34099023 C16.4306862,1.68842578 17.1915816,1.30360547 18.0000753,1.30101562 C18.6723264,1.29842578 19.3188201,1.5629707 19.7995481,2.03874023 C20.0495146,2.286375 20.4492803,2.286375 20.6992469,2.03874023 C21.7191464,1.03517578 23.3502176,1.05795117 24.342477,2.0894707 C24.6908033,2.45151562 24.9272887,2.90778516 25.0236904,3.40374023 C25.0898912,3.75664453 25.4266192,3.98744531 25.7756234,3.92049023 C25.7769038,3.92049023 25.7781841,3.91980469 25.7788619,3.91980469 C25.8225439,3.91134961 25.8714226,3.90746484 25.8951464,3.904875 C27.1329289,3.83075977 28.1977908,4.782375 28.2781506,6.03357422 C28.2981088,6.34039453 28.2556318,6.64843359 28.1535063,6.9376582 C28.0815063,7.1424082 28.1156234,7.36924805 28.2435063,7.54345313 C28.3707866,7.71895313 28.5770711,7.81645313 28.7917155,7.80342773 C30.2094226,7.72611328 31.4201674,8.82649219 31.4966862,10.2603516 C31.5429289,11.1287109 31.1567197,11.9633262 30.4671464,12.4832754 C30.1830628,12.6983848 30.1258996,13.1059805 30.3385858,13.3932246 C30.3751883,13.4426602 30.4182678,13.4861543 30.4671464,13.52325 C31.0692803,13.9730449 31.443364,14.6697891 31.4883264,15.4257187 L31.4883264,15.4257187 C31.5776485,16.8588926 30.503749,18.0945527 29.0873975,18.1887773 C29.0115565,18.1933477 28.935113,18.195252 28.8560335,18.1926621 C28.8515146,18.1718672 28.8438326,18.1529766 28.8393138,18.1321816 C28.8277155,18.0795469 28.8110711,18.0301113 28.7969121,17.979457 C28.7621925,17.8468418 28.7191883,17.7168926 28.6683515,17.589457 C28.6452301,17.5342324 28.621431,17.4796172 28.595749,17.4256875 C28.5366276,17.3022129 28.4698243,17.182623 28.3958661,17.0675273 C28.3707866,17.0285273 28.3489456,16.9875469 28.3219833,16.949918 C28.2159414,16.7978027 28.0970209,16.6555137 27.9672552,16.5241934 L27.9569372,16.5157383 C27.8283766,16.3902832 27.690251,16.275873 27.5430879,16.1738789 C27.5083682,16.1498086 27.4723682,16.1284043 27.437046,16.1089043 C27.313682,16.0289238 27.1845188,15.9574746 27.0514393,15.8950898 C27.0122008,15.8768848 26.9736402,15.8580703 26.9331967,15.8411602 C26.7731548,15.7742051 26.6079916,15.7208848 26.4396653,15.6812754 C26.4236234,15.6812754 26.4087866,15.6722109 26.3927448,15.66825 C26.3767029,15.6643652 26.3676653,15.6656602 26.3548619,15.6656602 L26.3548619,14.7816855 C26.3548619,14.422916 26.0669372,14.1317109 25.7115314,14.1323203 C25.6356904,14.1323203 25.5611297,14.1459551 25.4904854,14.1720059 C25.2957238,14.2415508 25.0926778,14.2831406 24.8869958,14.2954805 C23.6466527,14.3683008 22.581113,13.4134863 22.5033891,12.1596211 C22.4950293,12.0328711 22.4982678,11.9048262 22.5137071,11.7787617 C22.5561088,11.422582 22.3054644,11.0988516 21.9526946,11.0553574 C21.9270126,11.052082 21.9012552,11.0507871 21.8755732,11.0507871 L21.6891715,11.0507871 C21.4166862,11.0507871 21.1737238,11.2249922 21.0831213,11.4849668 C20.6705523,12.667916 19.3878075,13.2880312 18.2181841,12.8706855 C17.6128117,12.6542051 17.1275649,12.1868906 16.8859582,11.5850566 C16.7522762,11.2529473 16.3769874,11.0929863 16.0485439,11.2281914 C15.9283431,11.277627 15.8262176,11.3627109 15.7542176,11.4725508 C15.1758075,12.3272754 14.0454226,12.5898398 13.156569,12.0750703 C12.8500418,11.8943906 12.4560753,11.9996602 12.2780335,12.3103652 C12.2034728,12.4403906 12.1758326,12.5918203 12.198954,12.7399746 C12.2118326,12.8264297 12.2175565,12.9134941 12.2162762,13.0006348 C12.2162762,14.0776289 11.3531799,14.9505586 10.288318,14.9505586 C9.93358996,14.9505586 9.64566527,15.2417637 9.64566527,15.6005332 L9.64566527,15.6655078 C9.61162343,15.672668 9.58142259,15.6843223 9.54542259,15.692168 C9.49142259,15.7058027 9.43810042,15.720123 9.38477824,15.7363477 C9.29349791,15.7630078 9.20545607,15.7948477 9.11809205,15.8292773 C9.06989121,15.8487773 9.02108787,15.8662969 8.97416736,15.8877773 C8.8745272,15.9339375 8.77812552,15.9845918 8.68368201,16.040502 C8.65408368,16.0574121 8.62260251,16.0717324 8.5930795,16.0905469 C8.474159,16.1652715 8.36043515,16.2485273 8.25243515,16.3381816 C8.21771548,16.3674316 8.18819247,16.399957 8.15219247,16.430502 C8.08019247,16.4954766 8.01015063,16.5605273 7.94394979,16.633957 C7.90538912,16.6755469 7.86938912,16.7191172 7.83278661,16.7639824 C7.77690377,16.828957 7.72350628,16.9010918 7.67274477,16.9739121 C7.63930544,17.0213672 7.60850209,17.0694316 7.57574059,17.1188672 C7.52558159,17.199457 7.48061925,17.2826367 7.43753975,17.3677969 C7.41502092,17.4132715 7.39001674,17.4561562 7.36877824,17.503002 C7.3636569,17.5140469 7.35717992,17.5244824 7.35205858,17.5361367 C5.9427113,17.6927461 4.67472803,16.6651875 4.51988285,15.2397832 C4.5092636,15.1436543 4.50414226,15.0467637 4.50414226,14.9505586 Z M8.36005858,18.8504824 C8.36005858,18.661957 8.38830126,18.4748027 8.44297908,18.2947324 C8.48349791,18.1602129 8.53870293,18.030873 8.60746444,17.9086172 C8.62094561,17.8839375 8.63382427,17.8585723 8.64858577,17.8338926 C8.71666946,17.7207773 8.79574895,17.6148223 8.88446862,17.5173223 C8.90051046,17.4991172 8.91851046,17.483502 8.93523013,17.4665918 C9.0207113,17.3795273 9.1145523,17.3008418 9.21539749,17.2319824 C9.22955649,17.2222324 9.24175732,17.210502 9.25651883,17.2014375 C9.36640167,17.131207 9.48336402,17.072707 9.6054477,17.0272324 L9.6452887,17.0129121 L9.6452887,20.6891953 C8.87550628,20.4123105 8.36141423,19.6765664 8.36005858,18.8504824 Z M10.9307448,24.7002539 L10.9307448,16.1855332 C12.2192887,15.9177129 13.2173473,14.8836035 13.451272,13.5739043 C14.4107699,13.7858145 15.4126695,13.5446543 16.175523,12.9193594 C17.3740669,14.4779883 19.5944686,14.758834 21.1355397,13.5465586 C21.2415816,13.4633789 21.3431046,13.3736484 21.4389038,13.2787383 C21.9845523,14.7528926 23.4201841,15.6927773 24.9735314,15.5926875 L25.0692552,15.584918 L25.0692552,24.7002539 C25.0692552,25.777248 24.206159,26.6501777 23.1412971,26.6501777 L12.8587029,26.6501777 C11.793841,26.6501777 10.9307448,25.777248 10.9307448,24.7002539 Z M29.4694644,37.6998223 L28.9161339,34.3433086 L27.6488285,34.5565137 L28.1668368,37.6998223 L7.83308787,37.6998223 L8.35109623,34.5565137 L7.08379079,34.3433086 L6.53046025,37.6998223 L1.44256067,37.6998223 L2.33005858,33.4957441 C2.78826778,31.4041406 4.61598326,29.9117812 6.7341841,29.9000508 L12.2160502,29.9000508 L12.2160502,30.5500254 C12.2180084,32.3439492 13.6555983,33.7979941 15.4293138,33.7998984 L20.5705356,33.7998984 C22.344251,33.797918 23.7819163,32.3439492 23.7837992,30.5500254 L23.7837992,29.9000508 L29.2656653,29.9000508 C31.3831883,29.9117812 33.2109038,31.4027695 33.669113,33.4937637 L34.5572887,37.6998223 L29.4694644,37.6998223 L29.4694644,37.6998223 Z"/>
      <ellipse cx="21.855" cy="17.549" rx="1.285" ry="1.3"/>
      <ellipse cx="14.143" cy="17.549" rx="1.285" ry="1.3"/>
    </g>
  </g>
</svg>
