<svg xmlns="http://www.w3.org/2000/svg" version="1.1" xmlns:xlink="http://www.w3.org/1999/xlink" xmlns:svgjs="http://svgjs.com/svgjs" viewBox="0 0 16 16" width="16" height="16"><title>Exported from Streamline App (https://app.streamlineicons.com)</title><g transform="matrix(0.6666666666666666,0,0,0.6666666666666666,0,0)"><path d="M23.3,5.076c-1.661-3.234-5.628-4.509-8.862-2.848c-0.582,0.299-1.116,0.682-1.584,1.138L12,4.147l-0.827-0.753 C9.68,1.909,7.561,1.236,5.485,1.588C3.421,1.91,1.639,3.208,0.7,5.075c-1.269,2.487-0.779,5.51,1.21,7.469l9.373,9.656 c0.385,0.396,1.018,0.405,1.414,0.02c0.007-0.007,0.013-0.013,0.02-0.02l9.36-9.638C24.075,10.601,24.57,7.571,23.3,5.076z" stroke="none" fill="#7A4621" stroke-width="0" stroke-linecap="round" stroke-linejoin="round"></path></g></svg>