<svg xmlns="http://www.w3.org/2000/svg" width="96" height="96" viewBox="0 0 96 96">
  <g fill="none" fill-rule="evenodd" transform="translate(3 15)">
    <path stroke="#1C4DB8" stroke-linecap="round" stroke-linejoin="round" stroke-width="2.5" d="M40.9748178 51.8568015C16.1173635 51.8568015 3.68863629 51.8568015 3.68863629 51.8568015 3.68863629 51.8568015 2.06424927 51.961355 1.14712463 50.8118884.843301224 50.4310951.66294302 49.4915593.606050017 47.9932808M.606050017 47.9932808L.606050017 4.08623345C.606050017 1.9196019 2.36245192.163200005 4.52908346.163200005L79.7628689.163200005C81.9295004.163200005 83.6859023 1.9196019 83.6859023 4.08623345L83.6859023 29.3340675"/>
    <polygon stroke="#1C4DB8" stroke-linecap="round" stroke-linejoin="round" stroke-width="2.5" points="9.305 9.181 34.926 9.181 34.926 35.843 9.305 35.843"/>
    <path stroke="#1C4DB8" stroke-linecap="round" stroke-linejoin="round" stroke-width="2.5" d="M29.3167842,26.5256674 L24.6242174,24.113934 C26.7826805,22.9626849 27.8806505,20.4901691 27.2873084,18.116926 C26.6939664,15.7436829 24.5615912,14.078796 22.1153006,14.078796 C19.66901,14.078796 17.5366349,15.7436829 16.9432928,18.116926 C16.3499508,20.4901691 17.4479207,22.9626849 19.6063839,24.113934 L14.9138171,26.5256674 C14.0826594,26.9517764 13.5597056,27.8070317 13.5592004,28.7410508 L13.5592004,35.8433677 L30.6694177,35.8433677 L30.6694177,28.7410508 C30.6697483,27.8073397 30.1474936,26.9519753 29.3167842,26.5256674 L29.3167842,26.5256674 Z"/>
    <line x1="44.097" x2="55.521" y1="10.003" y2="10.003" stroke="#1C4DB8" stroke-linecap="round" stroke-linejoin="round" stroke-width="2.5"/>
    <line x1="44.097" x2="62.038" y1="18.527" y2="18.527" stroke="#1C4DB8" stroke-linecap="round" stroke-linejoin="round" stroke-width="2.5"/>
    <line x1="44.097" x2="60.417" y1="28.572" y2="28.572" stroke="#1C4DB8" stroke-linecap="round" stroke-linejoin="round" stroke-width="2.5"/>
    <path fill="#1C4DB8" fill-rule="nonzero" d="M73.2416687,7.60466688 L74.4614188,10.5657836 L76.9286855,10.603467 C77.1842209,10.5981292 77.4157138,10.7534601 77.5076443,10.9919463 C77.5995747,11.2304324 77.5322375,11.5009549 77.3392355,11.668517 L75.1575688,13.5407837 L76.2999688,16.2896838 C76.4017875,16.5470084 76.3285532,16.840601 76.1178076,17.019959 C75.907062,17.1993169 75.6055372,17.2246682 75.3678021,17.0830171 L72.5256854,15.4209838 L69.6339853,16.9917838 C69.391181,17.1255265 69.0902178,17.090167 68.8850238,16.9037899 C68.6798298,16.7174128 68.6157743,16.4212269 68.7256186,16.1667171 L69.9552853,13.4574837 L67.8450186,11.5158003 C67.655926,11.3435096 67.5956528,11.0708992 67.6944846,10.8349494 C67.7933165,10.5989995 68.0298843,10.4507264 68.2853186,10.4646336 L70.7525853,10.5043003 L72.0695187,7.58483355 C72.1827876,7.36284926 72.4126058,7.22476772 72.6617826,7.22889003 C72.9109595,7.2332001 73.1359746,7.37897763 73.2416687,7.60466688 L73.2416687,7.60466688 Z"/>
    <path stroke="#E82E5F" stroke-linecap="round" stroke-linejoin="round" stroke-width="2.5" d="M86.2285358,54.6314849 C86.2235821,62.2385841 81.261172,68.9542214 73.9908826,71.1927198 C66.7205932,73.4312182 58.8402368,70.6698269 54.5573683,64.3829341 C50.2744998,58.0960414 50.5892867,49.7518093 55.3336548,43.8054698 C60.078023,37.8591303 68.1440323,35.6993169 75.2250021,38.4792177"/>
    <path fill="#E82E5F" fill-rule="nonzero" d="M91.6866692,40.3693345 C91.9759811,40.1084934 92.0857858,39.702431 91.967359,39.331332 C91.8489323,38.9602329 91.524211,38.6928384 91.1372859,38.6478011 C88.3288858,38.3185677 82.6684523,38.9274511 75.5919188,46.3966846 C73.0477458,49.1263596 70.6637563,52.0010536 68.4519186,55.0063349 C66.8652519,53.3879348 61.6748684,48.6081014 59.001335,51.4581514 C58.6721973,51.809471 58.6429236,52.3464331 58.9319183,52.7314515 C60.3004184,54.5481849 64.4674018,60.099535 65.7268185,62.0412184 C66.3420059,63.0313966 67.4250297,63.6335532 68.5907519,63.6335532 C69.7564742,63.6335532 70.839498,63.0313966 71.4546853,62.0412184 C74.1018934,58.1603007 77.0552358,54.4973071 80.2864689,51.0872681 C82.725969,48.516868 88.9199192,42.8683345 91.6866692,40.3693345 Z"/>
  </g>
</svg>
