<svg xmlns="http://www.w3.org/2000/svg" version="1.1" xmlns:xlink="http://www.w3.org/1999/xlink" viewBox="0 0 40 40"><g transform="matrix(1.6666666666666667,0,0,1.6666666666666667,0,0)"><path d="M 19.75,8.25c0,4.221-2.933,6.649-5.131,9c-1.316,1.408-2.369,6-2.369,6s-1.05-4.589-2.363-5.993 c-2.2-2.35-5.137-4.782-5.137-9.007c0-4.142,3.358-7.5,7.5-7.5S19.75,4.108,19.75,8.25z " fill="none" stroke-width="1.5" stroke-linecap="round" stroke-linejoin="round"></path><path d="M 12.25,5.25c1.657,0,3,1.343,3,3 s-1.343,3-3,3s-3-1.343-3-3S10.593,5.25,12.25,5.25z" fill="none" stroke-width="1.5" stroke-linecap="round" stroke-linejoin="round"></path></g></svg>
