<?xml version="1.0" encoding="UTF-8"?>
<svg width="52px" height="52px" viewBox="0 0 52 52" version="1.1" xmlns="http://www.w3.org/2000/svg" xmlns:xlink="http://www.w3.org/1999/xlink">
    <!-- Generator: Sketch 60.1 (88133) - https://sketch.com -->
    <title>notepad</title>
    <desc>Created with Sketch.</desc>
    <g id="Page-4" stroke="none" stroke-width="1" fill="none" fill-rule="evenodd">
        <g id="Mobile-Interactions" transform="translate(-162.000000, -431.000000)" fill-rule="nonzero">
            <g id="notepad" transform="translate(162.000000, 431.000000)">
                <path d="M25,8.40240764 L25.0091907,8.40240764 L41.3719371,4.05962066 C42.3369666,3.80813996 43.3255725,4.37515781 43.5845122,5.32849111 L45.9145692,13.9424958 L46.9711067,17.847564 L46.9711067,17.8566584 L51.9377125,36.1748129 C52.1962526,37.12696 51.6264255,38.1067858 50.6641931,38.3638022 L40.7038089,41 L25,8.40240764 Z" id="Path" fill="#F3D55B"></path>
                <path d="M9.99543995,4.29898613 C10.4126642,4.01318543 10.9307601,3.92700426 11.4147088,4.06329072 L45.6879318,13.4389978 C46.6330643,13.6995454 47.192765,14.6928332 46.9388194,15.6580621 L37.7583167,50.6600335 C37.5031936,51.6252623 36.5305863,52.1968637 35.5850612,51.9375186 L1.31183823,42.5618116 C0.366705663,42.3012639 -0.192994986,41.3079761 0.0613430135,40.3423465 L7.44107003,12.2068078 L9.99543995,4.29898613 Z" id="Path" fill="#F9EAB0"></path>
                <g id="Group" transform="translate(6.000000, 15.000000)" fill="#802F34">
                    <path d="M34.0153886,5.22473854 C33.9373762,5.22513381 33.8601518,5.21485895 33.7848973,5.1947045 L21.1196979,1.79453426 C20.6449253,1.66688954 20.3628197,1.17725562 20.4904765,0.700662669 C20.6177391,0.224069821 21.1059078,-0.0584873541 21.5810744,0.0691573696 L34.2458799,3.47367466 C34.6777063,3.58946379 34.9566597,4.0083597 34.8987415,4.45254745 C34.8404291,4.89673519 34.462975,5.2290856 34.0161766,5.22948076 L34.0153886,5.22473854 Z" id="Path"></path>
                    <path d="M32.631653,10.4048212 C32.5540346,10.4048212 32.4764162,10.3945465 32.4011617,10.374392 L23.7910325,8.06374633 C23.4825288,7.98273346 23.2406114,7.74206593 23.1574771,7.43303135 C23.0743426,7.12399686 23.1625991,6.79401751 23.3883623,6.56797179 C23.6141256,6.34192607 23.9435113,6.25419499 24.2512271,6.33836943 L32.8613563,8.64901513 C33.2931826,8.76480426 33.5721362,9.18330501 33.5142178,9.62788791 C33.4559055,10.0720757 33.0784515,10.4044261 32.631653,10.4048212 Z" id="Path"></path>
                    <path d="M31.2526454,15.5845088 C31.174239,15.5845088 31.0966206,15.5742339 31.0209721,15.5540795 L20.3096294,12.6704159 C19.8344628,12.5423759 19.5531453,12.0523467 19.680408,11.5757539 C19.8080646,11.0995562 20.2966273,10.816999 20.7717939,10.9450389 L31.4831367,13.8287026 C31.914963,13.9444918 32.1939167,14.3633876 32.1356042,14.8079706 C32.077292,15.2525535 31.6994439,15.5845088 31.2526454,15.5845088 L31.2526454,15.5845088 Z" id="Path"></path>
                    <path d="M4.92620905,14.0535737 C4.84819657,14.053958 4.77018419,14.0436831 4.69492976,14.0235287 L2.11263954,13.3295841 C1.63786696,13.2015443 1.35615539,12.7115151 1.48381219,12.2349222 C1.61107481,11.7587245 2.09963749,11.4761673 2.57480415,11.6042072 L5.15709427,12.2977566 C5.58852666,12.4139409 5.86787416,12.8328368 5.80956184,13.2774198 C5.75124952,13.7216074 5.37340153,14.053958 4.92620905,14.0535737 L4.92620905,14.0535737 Z" id="Path"></path>
                    <path d="M29.8669398,20.7562926 C29.7893214,20.7562926 29.7117029,20.7460177 29.6364486,20.7258634 L9.85557012,15.4058852 C9.38040346,15.2782405 9.09869189,14.7882113 9.22595461,14.3116185 C9.35321733,13.8354207 9.84178001,13.5524684 10.3169466,13.6805082 L30.0978252,18.9957442 C30.5292574,19.1119285 30.808605,19.5304292 30.7502927,19.9750121 C30.6919803,20.4192 30.3149203,20.7515504 29.8681219,20.7515504 L29.8669398,20.7562926 Z" id="Path"></path>
                    <path d="M3.54286744,19.2289141 C3.46485496,19.2292984 3.38723656,19.2190236 3.31198222,19.198474 L0.73008598,18.505715 C0.254919424,18.3780703 -0.026792147,17.8880411 0.100470576,17.4114482 C0.227733199,16.9352505 0.716295879,16.6522981 1.19106856,16.7803381 L3.77335867,17.4730971 C4.20518504,17.5892813 4.48413857,18.0081773 4.42582625,18.4527603 C4.36751393,18.8969479 3.98966594,19.2292984 3.54286744,19.2289141 L3.54286744,19.2289141 Z" id="Path"></path>
                    <path d="M28.4851742,25.9324234 C28.4071619,25.9324234 28.3299374,25.9221486 28.254683,25.9019942 L8.47262248,20.5855727 C8.16530079,20.502979 7.9253535,20.2623115 7.84300697,19.9540673 C7.76105452,19.6458232 7.84891703,19.3166342 8.07389229,19.0913789 C8.29886755,18.8657284 8.62667735,18.7776021 8.93399903,18.8601957 L28.7148775,24.1766172 C29.1463099,24.2924064 29.4256574,24.7113023 29.3673451,25.1554901 C29.3094268,25.5996778 28.9319727,25.9320282 28.4851742,25.9324234 L28.4851742,25.9324234 Z" id="Path"></path>
                </g>
                <path d="M25.8318516,26.9559439 L20,25.0089218 L25.0090796,20 L26.9557715,25.8320595 C27.0603312,26.1508197 26.9761352,26.501691 26.7388196,26.738999 C26.5015042,26.976307 26.1510135,27.0601089 25.8318516,26.9559439 L25.8318516,26.9559439 Z" id="Path" fill="#BDC3C7"></path>
                <path d="M9,3.72795763 L3.72777651,9 L1.09187084,6.36377269 C-0.363956948,4.90799488 -0.363956948,2.54792027 1.09187084,1.09214246 C2.54769863,-0.364047487 4.90826654,-0.364047487 6.36409433,1.09214246 L9,3.72795763 Z" id="Path" fill="#FB7B76"></path>
                <polygon id="Path" fill="#E64C3C" points="25 19.929713 23.100872 21.8288409 23.100872 21.837958 21.8375615 23.1008721 21.8288409 23.1008721 19.9297129 25 6 11.0702871 7.90784859 9.17115914 9.17115914 7.90824506 11.0702871 6"></polygon>
                <polygon id="Path" fill="#BDC3C7" points="3 8.33347228 8.3333333 3 11 5.66694456 5.6666666 11"></polygon>
                <path d="M12.7221047,12.7229039 C12.5402251,12.8997377 12.2970138,12.999154 12.0436511,13 C11.7928264,12.9987309 11.552576,12.8993147 11.3745031,12.7229039 L8,9.34782973 L9.34802473,8 L12.7221047,11.374651 C13.0926318,11.747779 13.0926318,12.3497758 12.7221047,12.7229039 Z" id="Path" fill="#C03A2B"></path>
                <path d="M23,21.6977231 L23,21.707057 L21.7067029,23 L21.6977752,23 L13.2700394,14.5719274 C13.037108,14.3393924 12.9462079,14.0001268 13.0314267,13.6823697 C13.1166454,13.3646125 13.3649975,13.1162506 13.6827419,13.0314341 C14.0004864,12.9462119 14.3393327,13.0371156 14.5722641,13.2696506 L23,21.6977231 Z" id="Path" fill="#C03A2B"></path>
            </g>
        </g>
    </g>
</svg>