<svg xmlns="http://www.w3.org/2000/svg" version="1.1" xmlns:xlink="http://www.w3.org/1999/xlink" xmlns:svgjs="http://svgjs.com/svgjs" viewBox="0 0 40 40" width="40" height="40"><title>Exported from Streamline App (https://app.streamlineicons.com)</title><g transform="matrix(1.6666666666666667,0,0,1.6666666666666667,0,0)"><path d="M 15.04,22.39l0.012,0.007c2.188,1.393,5.05,1.079,6.884-0.755l0.774-0.774c0.72-0.721,0.72-1.888,0-2.609 L19.449,15c-0.721-0.72-1.888-0.72-2.609,0l0,0c-0.719,0.72-1.886,0.721-2.606,0.002c-0.001-0.001-0.001-0.001-0.002-0.002 L9.014,9.781c-0.72-0.721-0.72-1.888,0-2.609l0,0c0.72-0.719,0.721-1.886,0.002-2.606C9.015,4.565,9.015,4.565,9.014,4.564 L5.754,1.3c-0.721-0.72-1.888-0.72-2.609,0L2.371,2.074C0.537,3.908,0.223,6.77,1.615,8.958L1.623,8.97 C5.196,14.26,9.751,18.815,15.04,22.39z" fill="none" stroke-width="1.5" stroke-linecap="round" stroke-linejoin="round"></path></g></svg>