<svg xmlns="http://www.w3.org/2000/svg" width="96" height="96" viewBox="0 0 96 96">
  <g fill="none" fill-rule="evenodd" transform="translate(13 4)">
    <path stroke="#1C4DB8" stroke-linecap="round" stroke-linejoin="round" stroke-width="2.5" d="M51.0353494,78.0421029 L24.2417519,86.6071797 C22.6558028,87.1131929 20.9598336,86.2382826 20.4529319,84.6526173 L0.430775998,22.4081639 C0.187318637,21.646961 0.256329636,20.820211 0.6226177,20.1099052 C0.988905763,19.3995994 1.62244525,18.8639635 2.38377599,18.6209063 L12.4237584,15.4117367"/>
    <path stroke="#1C4DB8" stroke-linecap="round" stroke-linejoin="round" stroke-width="2.5" d="M70.7109453,72.2510688 L26.9353295,78.7576821 C26.1484226,78.8986541 25.3377458,78.7212117 24.681683,78.2643997 C24.0256201,77.8075877 23.5779272,77.1088362 23.4371159,76.3219005 L11.8034856,11.979144 C11.510884,10.3410245 12.6012641,8.77574514 14.2392671,8.48249277 L59.7301054,0.345513599 C60.516879,0.204136898 61.3275786,0.381449184 61.9834968,0.838364464 C62.6394149,1.29527974 63.0867008,1.99428529 63.2267566,2.78129519 L72.3221565,68.9489349 L72.3221565,70.312499 L71.7963143,71.6215751 L70.7109453,72.2510688 Z"/>
    <path stroke="#1C4DB8" stroke-linecap="round" stroke-linejoin="round" stroke-width="2.5" d="M34.0739351 18.9021383C35.5778643 21.5674374 35.184986 24.8994245 33.1023838 27.1418318 31.0197816 29.3842391 27.7258734 30.021938 24.9568558 28.7188018 22.1878383 27.4156656 20.5798135 24.4710523 20.9803604 21.4370476 21.3809073 18.4030429 23.6980118 15.9766221 26.7103439 15.4367351M24.4542383 42.138151C24.4542383 44.6505722 25.7945989 46.972145 27.9704194 48.2283556 30.14624 49.4845662 32.8269614 49.4845662 35.0027819 48.2283556 37.1786024 46.972145 38.518963 44.6505722 38.518963 42.138151 38.518963 39.6257299 37.1786024 37.304157 35.0027819 36.0479464 32.8269614 34.7917359 30.14624 34.7917359 27.9704194 36.0479464 25.7945989 37.304157 24.4542383 39.6257299 24.4542383 42.138151L24.4542383 42.138151zM27.9915119 61.9165726C27.9915119 65.8004391 31.1400078 68.9489349 35.0238743 68.9489349 38.9077408 68.9489349 42.0562366 65.8004391 42.0562366 61.9165726 42.0562366 58.0327061 38.9077408 54.8842102 35.0238743 54.8842102 31.1400078 54.8842102 27.9915119 58.0327061 27.9915119 61.9165726z"/>
    <path fill="#E82E5F" fill-rule="nonzero" d="M24.2308151,21.8660111 C25.5267773,22.6048202 26.7105375,23.5249965 27.7462151,24.5986487 C28.0431974,24.8885105 28.4705094,25.0012567 28.8718376,24.895644 C29.2731658,24.7900314 29.5896297,24.4815546 29.7054647,24.0830567 C30.5097544,19.7362557 32.4029963,15.6643344 35.2082375,12.2478768 C35.6481032,11.7828454 35.6481032,11.0552017 35.2082375,10.5901704 C34.7484533,10.1373132 34.0103152,10.1373132 33.5505311,10.5901704 C30.4597629,14.2946834 28.3589899,18.7225411 27.4446719,23.4596591 L29.4039215,22.9425047 C28.2269587,21.7258682 26.8834702,20.6822185 25.4135519,19.8427031 C24.8526736,19.5160994 24.1332273,19.7060165 23.8066235,20.2668947 C23.4800198,20.827773 23.6699368,21.5472194 24.2308151,21.8738231 L24.2308151,21.8660111 Z"/>
    <line x1="42.525" x2="51.567" y1="14.884" y2="12.874" stroke="#1C4DB8" stroke-linecap="round" stroke-linejoin="round" stroke-width="2.5"/>
    <line x1="43.53" x2="57.594" y1="21.916" y2="18.902" stroke="#1C4DB8" stroke-linecap="round" stroke-linejoin="round" stroke-width="2.5"/>
  </g>
</svg>
