<svg xmlns="http://www.w3.org/2000/svg" width="96" height="96" viewBox="0 0 96 96">
  <g fill="none" fill-rule="evenodd" transform="translate(11 8)">
    <path stroke="#1C4DB8" stroke-linecap="round" stroke-linejoin="round" stroke-width="2.5" d="M43.5829786 0C40.6366461 1.79531967 38.0431229 4.11384775 35.9301589 6.84137979 33.394409 10.6133997 33.3973489 18.3073794 33.3973489 18.3073794M61.5860681 40.9791887C64.623088 41.4760487 66.8030979 42.1551887 67.7056779 43.0371887 73.2005377 48.4335585 69.8327678 79.3799975 69.8327678 79.3799975M1.01912997 78.2231076C1.01912997 78.2231076-1.58423995 46.0301086 3.91208988 43.0386587 6.48200775 42.1345995 9.16278968 41.5837065 11.8809596 41.4010787M.404669987 62.2677281C5.00429984 65.126878 53.4305083 68.7019179 70.8544178 62.2677281M49.4776785 16.9049995L44.6648986 25.0032292C43.8242666 27.522857 45.0781481 30.2631533 47.5343385 31.274249L47.5343385 31.274249C49.175289 31.9539518 51.0530283 31.7181868 52.4750084 30.653909 56.4540318 27.0992008 60.0721243 23.1600691 63.276568 18.8939094 64.5088378 16.5946697 65.0306888 13.9813217 64.775968 11.3851496 64.6867455 9.54543747 65.4855098 7.77459736 66.9236379 6.62381979L75.1967977 0M13.4553296 54.6002083C19.0089894 57.6666282 52.3676984 58.7338482 58.9077282 55.7600383"/>
    <path fill="#E82E5F" fill-rule="nonzero" d="M54.6814783,33.593909 C52.2154816,35.4188026 48.9770668,35.8276428 46.1348986,34.6728889 C43.9562548,33.7958124 42.2301758,32.067223 41.3562667,29.8873068 C40.4823576,27.7073906 40.536395,25.2651682 41.5058687,23.1260393 L43.0243787,20.5799994 C43.1505832,20.3672708 43.1613257,20.1053296 43.0529642,19.8829811 C42.9446026,19.6606327 42.7316709,19.5076992 42.4863587,19.4760294 L22.6678193,16.9270495 C22.3714649,16.8897506 22.0725859,16.9734791 21.8387393,17.1593095 C21.6048719,17.3459179 21.457275,17.6198746 21.4300793,17.9178294 L18.2857494,51.6381584 C18.235475,52.1926991 18.607125,52.6974868 19.1515794,52.8141584 C26.166085,53.9916789 33.2722375,54.5363002 40.3842587,54.4414483 C44.4446147,54.493361 48.5038077,54.2694055 52.5338084,53.7711283 C52.9869422,53.706665 53.3521974,53.3672063 53.4496183,52.9199983 L57.8596182,32.581079 C57.9284582,32.2656728 57.7834293,31.9422684 57.5021206,31.7838845 C57.2208119,31.6255006 56.8690839,31.6692183 56.6351082,31.891649 C56.0152408,32.4940676 55.3630677,33.0623268 54.6814783,33.593909 L54.6814783,33.593909 Z"/>
  </g>
</svg>
