<svg xmlns="http://www.w3.org/2000/svg" width="36" height="39" viewBox="0 0 36 39">
  <g fill="none">
    <path fill="#A05D35" d="M5.29134876,29.5683647 C5.40424292,29.5365739 5.51903766,29.5099547 5.6352008,29.4904848 C5.81681976,29.4515448 6.00109951,29.4256102 6.18659564,29.4126048 C6.32929081,29.3995995 6.47852397,29.3931348 6.62775712,29.3931348 L12.8101757,29.3931348 L12.8101757,27.4461365 C11.3790427,27.448114 10.2171832,26.2883571 10.2152826,24.8566288 C10.2152826,24.8546514 10.2152826,24.8520655 10.2152826,24.8501642 L10.2152826,11.8701502 L12.8750994,11.8701502 C15.7204123,16.3391958 20.5041597,19.2057705 25.7847934,19.6061981 L25.7847934,24.8500881 C25.7847934,26.2837177 24.6229339,27.4460605 23.1899003,27.4460605 L23.1899003,29.3930588 L29.3723189,29.3930588 C29.5215521,29.3930588 29.6707092,29.3995234 29.8134804,29.4125288 C29.9990525,29.4255341 30.1832563,29.4514687 30.3648752,29.4904087 C30.4809623,29.5098787 30.5958331,29.5364978 30.7087273,29.5682886 C30.8449605,29.6072286 30.9876557,29.6461686 31.1238889,29.6981139 C31.4456942,29.8123479 31.7544237,29.9602741 32.0450596,30.1395349 C33.1446563,29.4126048 33.6895892,28.0879615 33.4203917,26.7970864 L29.7420948,10.0139612 C28.5690599,4.6539357 23.8222596,0.834624757 18.337276,0.837209302 L17.6625719,0.837209302 C12.1775883,0.834624757 7.4314723,4.6539357 6.25790521,10.0140372 L2.57960828,26.7971625 C2.31041083,28.0880375 2.85534371,29.4126048 3.95494041,30.1395349 C4.24557635,29.9604263 4.55438178,29.812424 4.87611113,29.6981899 C5.01234435,29.6462446 5.15511554,29.6073046 5.29134876,29.5683647 Z"/>
    <g fill="#F9F5F2" transform="translate(10.884 11.72)">
      <path d="M2.60172951,0.04536 L0.0422807053,0.04536 L0.0422807053,12.90492 C0.0403811244,14.3233619 1.15590969,15.4749181 2.53303771,15.4768019 C2.53493972,15.4768019 2.53742696,15.4768019 2.53925581,15.4768019 L12.5272197,15.4768019 C13.9061766,15.4768019 15.0241924,14.3252456 15.0241924,12.90492 L15.0241924,7.70969302 C9.94290088,7.3129814 5.33974531,4.47293302 2.60172951,0.04536 Z"/>
      <polygon points="2.539 15.477 2.539 17.406 7.533 22.55 12.527 17.406 12.527 15.477"/>
    </g>
    <polygon fill="#F08AB7" points="22.995 28.465 17.984 33.728 12.974 28.465 11.721 28.465 12.974 37.674 22.995 37.674 24.279 28.465"/>
    <path fill="#917149" d="M6.04702326.000153488372C5.90117668.000153488372 5.75540441.00667674419 5.61587315.0198 5.43451223.0329232558 5.25448867.0590930233 5.07699124.0983860465 4.96353851.118032558 4.85127454.144893023 4.74094231.176972093 4.60780066.216265116 4.4683437.25555814 4.33520205.307974419 4.02069949.423244186 3.71897614.572511628 3.43493567.75332093 2.23160858 1.49727907 1.38008155 2.7231907 1.08274177 4.13904419L.0429441256 9.16855116 12.0890686 9.16855116 10.8210281.000153488372 6.04702326.000153488372zM33.2396448 4.13904419C32.942305 2.7231907 32.0908523 1.49727907 30.8874509.75332093 30.6034105.572588372 30.3016128.423244186 29.9871845.307974419 29.8540429.25555814 29.7145859.216265116 29.5814443.176972093 29.4711121.144893023 29.3589224.118032558 29.2453953.0983860465 29.0678979.0590930233 28.8878001.0329232558 28.7065134.0198 28.5670565.00667674419 28.4212099.000153488372 28.2753633.000153488372L23.5330094.000153488372 22.233318 9.16855116 34.2794425 9.16855116 33.2396448 4.13904419z" transform="translate(.837 28.465)"/>
    <g fill="#231F20">
      <ellipse cx="14.142" cy="16.689" rx="1.285" ry="1.284"/>
      <path d="M34.925272,32.8043852 C34.6457071,31.5367358 33.9477741,30.3993641 32.9439163,29.5745233 C33.8012134,28.6675443 34.1592552,27.3992932 33.9021339,26.1791065 L30.2581506,9.58059484 C29.0575732,3.96880378 24.0788033,-0.0306137355 18.3325858,-3.3609981e-05 L17.6641757,-3.3609981e-05 C11.918636,-0.0312906977 6.93918828,3.96880378 5.73868619,9.58059484 L2.09274477,26.1880574 C1.83886192,27.4069655 2.19878661,28.6733361 3.05676151,29.5770807 C2.05222594,30.4018463 1.35429289,31.539895 1.07472803,32.8082213 L0.0207112971,37.7377097 C-0.0525690377,38.0843143 0.169832636,38.4251272 0.517481172,38.4983143 C0.559882845,38.5072653 0.602962343,38.5117783 0.646041841,38.5117783 L35.3506444,38.5117783 C35.7053724,38.5117783 35.9932971,38.2242198 35.9932971,37.869943 C35.9932971,37.8250378 35.9887782,37.7800574 35.9791381,37.7358292 L34.925272,32.8043852 Z M3.34980753,26.4538027 L6.99379079,9.85529106 C8.06897071,4.83463844 12.5240084,1.25629142 17.6641757,1.28373782 L18.3325858,1.28373782 C23.4727531,1.25696839 27.9265105,4.83531541 29.0010126,9.85529106 L32.6449958,26.4448517 C32.8326778,27.3306192 32.5325523,28.2491065 31.8577406,28.8537842 C31.8435816,28.8467137 31.8268619,28.8415988 31.8121004,28.8339266 C31.6218577,28.7396032 31.4264937,28.6555094 31.2266109,28.5829241 C31.0896904,28.5315501 30.9477238,28.4904811 30.7613222,28.4372267 C30.6366778,28.4012725 30.5106778,28.3723888 30.382795,28.3505756 C30.1777908,28.3062722 29.9695481,28.2767867 29.7600251,28.2619687 C29.5999833,28.247226 29.4315816,28.2401555 29.2645356,28.2401555 L23.7825188,28.2401555 L23.7825188,27.5360396 L23.7825188,27.5360396 C23.7941172,27.5360396 23.8043598,27.5283674 23.8159582,27.5257347 C23.9991213,27.4859444 24.1777657,27.4307344 24.3512887,27.3595029 C24.4123682,27.3344553 24.468251,27.3010585 24.5273724,27.2721748 C24.6456151,27.2169648 24.7600167,27.1546842 24.8705774,27.0860102 C24.9348201,27.0449411 24.9920586,26.998682 25.0524603,26.9531751 C25.1488619,26.8825454 25.2414226,26.8068009 25.3287866,26.7259415 C25.3859498,26.6720102 25.4393473,26.6161984 25.4926695,26.558431 C25.5723515,26.4724568 25.6469121,26.3818943 25.7163515,26.2875709 C25.763272,26.2234099 25.8082343,26.1591737 25.850636,26.0950127 C25.9142762,25.9923401 25.9714393,25.8870349 26.0228787,25.7779687 C26.056318,25.7098964 26.0910377,25.6431781 26.1192803,25.5725483 C26.1668033,25.4467086 26.2067197,25.3183866 26.2382008,25.187432 C26.2549205,25.1232711 26.2767615,25.0629462 26.2896402,24.9981083 C26.330159,24.7984797 26.3513222,24.5950149 26.3532803,24.3908732 L26.3532803,19.2046657 C26.3539582,18.8683659 26.094954,18.5878027 25.7588285,18.5628303 C20.7330628,18.1693648 16.1823013,15.4472246 13.4624937,11.2083881 C13.344251,11.0235022 13.1405272,10.9118786 12.921364,10.9118786 L10.2863598,10.9118786 C9.9316318,10.9118786 9.64370711,11.1994371 9.64370711,11.553714 L9.64370711,24.3909484 C9.64438494,25.243996 9.98367364,26.0610894 10.5871632,26.6644132 C10.7246862,26.7972482 10.8731297,26.9179731 11.0312887,27.0251588 C11.0769289,27.0565999 11.1238494,27.0842049 11.1707699,27.1130887 C11.2902929,27.1868775 11.4143347,27.2529942 11.5428954,27.3107616 C11.5910962,27.3325749 11.6386192,27.3556668 11.6881757,27.3749226 C11.8584603,27.4435967 12.0345439,27.497528 12.2145439,27.5360396 L12.2145439,28.2421112 L6.7325272,28.2421112 C6.56540586,28.2421112 6.3970795,28.2491817 6.25119665,28.2626457 C6.04679498,28.2761097 5.84374895,28.3043917 5.64318828,28.3473412 C5.48894561,28.3736675 5.33666109,28.4089448 5.18686192,28.4532482 C5.04933891,28.4924368 4.90729707,28.5335058 4.77941423,28.5816453 C4.57629289,28.6561112 4.3783682,28.7414836 4.18496234,28.8383645 C4.17020084,28.8460367 4.15348117,28.8512267 4.13932218,28.8582972 C3.46488703,28.2555 3.16408368,27.3389684 3.34980753,26.4538027 Z M12.3126025,29.525782 L12.590887,29.525782 L17.5439749,34.4725705 C17.7946192,34.7228961 18.2020669,34.7228961 18.4527113,34.4725705 L23.4057992,29.525782 L23.7136067,29.525782 L22.5844268,37.2281076 L13.4148201,37.2281076 L12.3126025,29.525782 Z M25.0678996,24.3908732 C25.0678996,25.454456 24.204728,26.3164579 23.1397908,26.3164579 L12.8569707,26.3164579 C11.7939916,26.3184102 10.9308954,25.4602478 10.9289372,24.3985454 C10.9289372,24.395988 10.9289372,24.3934306 10.9289372,24.3908732 L10.9289372,12.1955494 L12.5735649,12.1955494 C15.4186946,16.4369433 19.9881339,19.2142936 25.0678996,19.7894106 L25.0678996,24.3908732 L25.0678996,24.3908732 Z M13.4996234,27.6002006 L22.4971381,27.6002006 L22.4971381,28.6182013 L17.9984184,33.1111995 L13.4996234,28.6182013 L13.4996234,27.6002006 L13.4996234,27.6002006 Z M7.83120502,37.2281076 L8.34921339,34.1246871 L7.08183264,33.9128732 L6.52850209,37.2281076 L1.44045188,37.2281076 L2.3280251,33.0759222 C2.59599163,31.8595716 3.35440167,30.8075723 4.42378243,30.1676174 C4.67570711,30.0122922 4.94367364,29.8845719 5.22323849,29.7863372 C5.32671967,29.7478256 5.43464435,29.7176632 5.58188285,29.6759172 C5.68152301,29.6477104 5.7823682,29.6252202 5.88396653,29.6078448 C6.03888703,29.575125 6.19569038,29.5539135 6.35377406,29.5436839 C6.47585774,29.5321003 6.60441841,29.5269855 6.73230126,29.5269855 L11.0138159,29.5269855 L12.1160335,37.229311 L7.83120502,37.2281076 Z M29.4682594,37.2281076 L28.9149289,33.9128732 L27.6475481,34.1246871 L28.1655565,37.2281076 L23.883364,37.2281076 L25.0125439,29.525782 L29.2645356,29.525782 C29.3930962,29.525782 29.5215816,29.5308968 29.6572218,29.5430821 C29.8204268,29.5552674 29.9824268,29.5783594 30.1417908,29.6130349 C30.2485105,29.6316137 30.3538745,29.6566613 30.4579582,29.6875007 C30.5620418,29.7170614 30.6700418,29.7472238 30.7824854,29.7895716 C31.0620502,29.889085 31.3300167,30.0180839 31.5819414,30.1746879 C32.6474812,30.8146428 33.4019749,31.8640847 33.6687364,33.0772009 L34.5563096,37.2281076 L29.4682594,37.2281076 L29.4682594,37.2281076 Z"/>
    </g>
  </g>
</svg>
